<!-- Generator: Adobe Illustrator 24.1.2, SVG Export Plug-In  -->
<svg version="1.1" xmlns="http://www.w3.org/2000/svg" xmlns:xlink="http://www.w3.org/1999/xlink" x="0px" y="0px" width="326.1px"
	 height="326.1px" viewBox="0 0 326.1 326.1" style="overflow:visible;enable-background:new 0 0 326.1 326.1;"
	 xml:space="preserve">
<style type="text/css">
	.st0{fill:#9CB2DC;}
	.st1{fill:#53BD88;}
	.st2{fill:#6CCBDC;}
	.st3{fill:#FFFFFF;}
	.st4{fill:#FFFFFF;stroke:#53BD88;stroke-width:0.5;stroke-miterlimit:10;}
	.st5{fill:#FFFFFF;stroke:#53BD88;stroke-width:0.4507;stroke-miterlimit:10;}
	.st6{fill:none;stroke:#9CB2DC;stroke-width:0.6459;stroke-miterlimit:10;}
	.st7{fill:none;stroke:#FFFFFF;stroke-width:1.2918;stroke-miterlimit:10;}
	.st8{fill:none;stroke:#9CB2DC;stroke-width:1.0463;stroke-miterlimit:10;}
	.st9{fill:#FFFFFF;stroke:#9CB2DC;stroke-width:0.2062;stroke-miterlimit:10;}
	.st10{fill:#FFFFFF;stroke:#9CB2DC;stroke-width:0.2124;stroke-miterlimit:10;}
</style>
<defs>
</defs>
<g>
	<path class="st0" d="M169.1,325.9c-2,0.1-4.1,0.1-6.1,0.1c-90,0-163-73-163-163c0-21.8,4.3-42.6,12-61.6l57.7-22.6l20.4,57.8
		c-3,8.3-4.6,17.2-4.6,26.4c0,41.8,33,75.8,74.4,77.4l-37.8,45.1L169.1,325.9z"/>
	<path class="st1" d="M171.7,240c38.7-4.3,68.7-37.1,68.7-77c0-10.8-2.2-21.1-6.2-30.4l57.5,16.3l16.5-60.1
		c11.4,22.3,17.8,47.5,17.8,74.2c0,84.2-63.8,153.5-145.8,162.1l-47.7-40.3L171.7,240z"/>
	<path class="st2" d="M228.6,121.9c-13.7-21.8-38-36.3-65.6-36.3c-28.8,0-54,15.7-67.3,39.1L73.5,69L17,90.5C43.7,36.8,99.1,0,163,0
		c59,0,110.7,31.4,139.4,78.4l-15.5,59.5L228.6,121.9z"/>
	<g>
		<path class="st3" d="M249.4,71.3c-0.3,0.1-0.6,0.1-0.9,0.2c-0.2,0.1-0.3,0.2-0.4,0.3c-0.8,1.1-1.6,2.2-2.4,3.4
			c-0.1,0.1-0.1,0.2-0.3,0.3c-0.4-0.6-0.8-1.1-1.2-1.6c-0.4-0.6-0.9-1.2-1.3-1.8c-0.2-0.2-0.4-0.3-0.6-0.3c-0.8-0.2-1.6-0.3-2.4-0.5
			c-3.1-0.9-5.8-2.5-7.8-5.1c-1.4-1.9-2.2-4.1-2.1-6.5c0.1-2.2,0.8-4.1,2.1-5.9c1.9-2.5,4.4-4.1,7.3-5c1.9-0.6,3.9-0.9,5.9-0.8
			c4.1,0.2,7.8,1.5,10.9,4.4c1.3,1.2,2.3,2.7,2.8,4.4c0,0,0,0.1,0,0.2c-0.3-0.1-0.6-0.1-0.9-0.1c-0.6-0.1-1.2-0.1-1.8-0.2
			c-0.1,0-0.3-0.1-0.3-0.2c-1.2-2.1-2.9-3.5-5-4.5c-2.8-1.3-5.6-1.6-8.6-1.1c-2.4,0.4-4.7,1.3-6.6,2.9c-1.5,1.3-2.6,2.8-3,4.8
			c-0.2,1-0.2,2,0,3c0.6,2.8,2.4,4.7,4.7,6.1c2.6,1.5,5.5,2.1,8.5,1.8c0.3,0,0.7-0.1,1-0.1c0.1,0,0.2,0,0.3,0.1c0.6,0.8,1.2,1.4,2,2
			C249.4,71.1,249.4,71.2,249.4,71.3z"/>
		<path class="st3" d="M256.5,73.1c-0.4-0.5-0.8-1-1.1-1.5c-0.2-0.3-0.5-0.4-0.8-0.5c-2-0.3-3.7-1.2-5-2.8c-1-1.4-1.4-2.9-0.9-4.6
			c0.3-1.1,0.9-2,1.7-2.7c2-1.8,4.4-2.4,7.1-2c1.7,0.2,3.2,0.9,4.4,2c1.2,1.1,1.9,2.4,1.9,4.1c0,1.7-0.7,3-1.9,4.2
			c-1.1,1-2.3,1.6-3.7,1.9c-0.1,0-0.3,0.1-0.3,0.2c-0.4,0.5-0.7,1-1.1,1.6C256.7,72.8,256.6,72.9,256.5,73.1z"/>
		<g>
			<circle class="st2" cx="253.1" cy="65.2" r="0.8"/>
			<circle class="st2" cx="256" cy="65.2" r="0.8"/>
			<circle class="st2" cx="259" cy="65.2" r="0.8"/>
		</g>
	</g>
	<g>
		<path class="st3" d="M239.9,85.5c0.4,0.2,1,0.4,1.7,0.4c0.7,0,1.1-0.3,1.1-0.7c0-0.4-0.3-0.7-1.1-0.9c-1.1-0.4-1.8-1-1.8-2
			c0-1.1,1-2,2.5-2c0.8,0,1.3,0.2,1.7,0.3l-0.3,1.2c-0.3-0.1-0.8-0.3-1.4-0.3c-0.7,0-1,0.3-1,0.6c0,0.4,0.4,0.6,1.2,0.9
			c1.2,0.4,1.7,1.1,1.7,2c0,1.1-0.9,2.1-2.7,2.1c-0.8,0-1.5-0.2-1.9-0.4L239.9,85.5z"/>
		<path class="st3" d="M246.5,85.1c0,0.6,0.7,0.9,1.4,0.9c0.5,0,0.9-0.1,1.3-0.2l0.2,1c-0.5,0.2-1.1,0.3-1.8,0.3
			c-1.7,0-2.6-1-2.6-2.5c0-1.2,0.8-2.6,2.5-2.6c1.6,0,2.2,1.2,2.2,2.4c0,0.3,0,0.5,0,0.6H246.5z M248.3,84.1c0-0.4-0.2-1-0.9-1
			c-0.6,0-0.9,0.6-0.9,1H248.3z"/>
		<path class="st3" d="M252.3,80.8v1.4h1.1v1.1h-1.1v1.8c0,0.6,0.1,0.9,0.6,0.9c0.2,0,0.3,0,0.5,0l0,1.1c-0.2,0.1-0.6,0.1-1,0.1
			c-0.5,0-0.9-0.2-1.1-0.4c-0.3-0.3-0.4-0.8-0.4-1.4v-2h-0.6v-1.1h0.6v-1.1L252.3,80.8z"/>
		<path class="st3" d="M254.3,85.8c0.3,0.2,0.9,0.4,1.3,0.4c0.5,0,0.6-0.2,0.6-0.4c0-0.2-0.2-0.4-0.7-0.6c-1-0.3-1.4-0.9-1.4-1.5
			c0-0.9,0.8-1.6,2-1.6c0.6,0,1.1,0.1,1.4,0.3l-0.3,1c-0.2-0.1-0.6-0.3-1.1-0.3c-0.4,0-0.6,0.1-0.6,0.4c0,0.2,0.2,0.3,0.8,0.6
			c0.9,0.3,1.3,0.8,1.3,1.5c0,0.9-0.7,1.6-2.1,1.6c-0.6,0-1.2-0.1-1.6-0.3L254.3,85.8z"/>
		<path class="st3" d="M224.4,96.5c0.4,0.2,1,0.4,1.7,0.4c0.7,0,1.1-0.3,1.1-0.7c0-0.4-0.3-0.7-1.1-0.9c-1.1-0.4-1.8-1-1.8-2
			c0-1.1,1-2,2.5-2c0.8,0,1.3,0.2,1.7,0.3l-0.3,1.2c-0.3-0.1-0.8-0.3-1.4-0.3c-0.7,0-1,0.3-1,0.6c0,0.4,0.4,0.6,1.2,0.9
			c1.2,0.4,1.7,1.1,1.7,2c0,1.1-0.9,2.1-2.7,2.1c-0.8,0-1.5-0.2-1.9-0.4L224.4,96.5z"/>
		<path class="st3" d="M234.3,96.5c0,0.6,0,1.2,0,1.6H233l-0.1-0.7h0c-0.2,0.3-0.6,0.8-1.5,0.8c-1,0-1.7-0.6-1.7-2.1v-2.9h1.5v2.6
			c0,0.7,0.2,1.1,0.8,1.1c0.4,0,0.7-0.3,0.8-0.5c0-0.1,0-0.2,0-0.3v-2.9h1.5V96.5z"/>
		<path class="st3" d="M235.5,94.8c0-0.6,0-1.2,0-1.6h1.3l0.1,0.7h0c0.4-0.5,0.9-0.8,1.6-0.8c1.1,0,2,0.9,2,2.5
			c0,1.8-1.1,2.6-2.2,2.6c-0.6,0-1-0.2-1.3-0.6h0v2.4h-1.5V94.8z M237.1,96c0,0.1,0,0.2,0,0.3c0.1,0.4,0.4,0.7,0.9,0.7
			c0.7,0,1-0.5,1-1.4c0-0.8-0.3-1.4-1-1.4c-0.4,0-0.8,0.3-0.9,0.8c0,0.1,0,0.2,0,0.3V96z"/>
		<path class="st3" d="M241.5,94.8c0-0.6,0-1.2,0-1.6h1.3l0.1,0.7h0c0.4-0.5,0.9-0.8,1.6-0.8c1.1,0,2,0.9,2,2.5
			c0,1.8-1.1,2.6-2.2,2.6c-0.6,0-1-0.2-1.3-0.6h0v2.4h-1.5V94.8z M243,96c0,0.1,0,0.2,0,0.3c0.1,0.4,0.4,0.7,0.9,0.7
			c0.7,0,1-0.5,1-1.4c0-0.8-0.3-1.4-1-1.4c-0.4,0-0.8,0.3-0.9,0.8c0,0.1,0,0.2,0,0.3V96z"/>
		<path class="st3" d="M252.4,95.6c0,1.8-1.3,2.6-2.6,2.6c-1.4,0-2.5-0.9-2.5-2.5s1-2.6,2.6-2.6C251.4,93.1,252.4,94.1,252.4,95.6z
			 M248.8,95.6c0,0.8,0.3,1.5,1,1.5c0.6,0,1-0.6,1-1.5c0-0.7-0.3-1.5-1-1.5C249.1,94.2,248.8,94.9,248.8,95.6z"/>
		<path class="st3" d="M253.3,94.8c0-0.7,0-1.2,0-1.6h1.3l0,0.9h0c0.2-0.7,0.8-1,1.3-1c0.1,0,0.2,0,0.3,0v1.4c-0.1,0-0.2,0-0.4,0
			c-0.6,0-0.9,0.3-1,0.8c0,0.1,0,0.2,0,0.3v2.5h-1.5V94.8z"/>
		<path class="st3" d="M259,91.8v1.4h1.1v1.1H259v1.8c0,0.6,0.1,0.9,0.6,0.9c0.2,0,0.3,0,0.5,0l0,1.1c-0.2,0.1-0.6,0.1-1,0.1
			c-0.5,0-0.9-0.2-1.1-0.4c-0.3-0.3-0.4-0.8-0.4-1.4v-2h-0.6v-1.1h0.6v-1.1L259,91.8z"/>
		<path class="st3" d="M262.5,91.8c0,0.4-0.3,0.8-0.8,0.8c-0.5,0-0.8-0.3-0.8-0.8c0-0.4,0.3-0.8,0.8-0.8
			C262.2,91.1,262.5,91.4,262.5,91.8z M261,98.1v-4.9h1.5v4.9H261z"/>
		<path class="st3" d="M264.8,93.2l0.7,2.3c0.1,0.4,0.2,0.8,0.3,1.2h0c0.1-0.4,0.2-0.8,0.3-1.2l0.6-2.3h1.6l-1.8,4.9H265l-1.8-4.9
			H264.8z"/>
		<path class="st3" d="M270,96.1c0,0.6,0.7,0.9,1.4,0.9c0.5,0,0.9-0.1,1.3-0.2l0.2,1c-0.5,0.2-1.1,0.3-1.8,0.3c-1.7,0-2.6-1-2.6-2.5
			c0-1.2,0.8-2.6,2.5-2.6c1.6,0,2.2,1.2,2.2,2.4c0,0.3,0,0.5,0,0.6H270z M271.8,95.1c0-0.4-0.2-1-0.9-1c-0.6,0-0.9,0.6-0.9,1H271.8z
			"/>
		<path class="st3" d="M234.6,109.1v-6.7h1.8l1.4,2.5c0.4,0.7,0.8,1.5,1.1,2.3h0c-0.1-0.9-0.1-1.8-0.1-2.8v-2h1.4v6.7h-1.6l-1.4-2.6
			c-0.4-0.7-0.8-1.6-1.2-2.4l0,0c0,0.9,0.1,1.8,0.1,2.9v2H234.6z"/>
		<path class="st3" d="M246.2,106.6c0,1.8-1.3,2.6-2.6,2.6c-1.4,0-2.5-0.9-2.5-2.5s1-2.6,2.6-2.6
			C245.2,104.1,246.2,105.1,246.2,106.6z M242.7,106.6c0,0.8,0.3,1.5,1,1.5c0.6,0,1-0.6,1-1.5c0-0.7-0.3-1.5-1-1.5
			C243,105.2,242.7,105.9,242.7,106.6z"/>
		<path class="st3" d="M247.2,105.8c0-0.7,0-1.2,0-1.6h1.3l0,0.9h0c0.2-0.7,0.8-1,1.3-1c0.1,0,0.2,0,0.3,0v1.4c-0.1,0-0.2,0-0.4,0
			c-0.6,0-0.9,0.3-1,0.8c0,0.1,0,0.2,0,0.3v2.5h-1.5V105.8z"/>
		<path class="st3" d="M251,105.8c0-0.6,0-1.1,0-1.6h1.3l0.1,0.7h0c0.2-0.3,0.6-0.8,1.5-0.8c0.6,0,1.1,0.3,1.3,0.8h0
			c0.2-0.2,0.4-0.5,0.6-0.6c0.3-0.2,0.6-0.2,0.9-0.2c0.9,0,1.6,0.7,1.6,2.1v2.9h-1.5v-2.7c0-0.7-0.2-1.1-0.7-1.1
			c-0.3,0-0.6,0.2-0.7,0.5c0,0.1-0.1,0.3-0.1,0.4v2.9h-1.5v-2.7c0-0.6-0.2-1-0.7-1c-0.4,0-0.6,0.3-0.7,0.5c0,0.1-0.1,0.3-0.1,0.4
			v2.8H251V105.8z"/>
		<path class="st3" d="M259.6,107.8c0.3,0.2,0.9,0.4,1.3,0.4c0.5,0,0.6-0.2,0.6-0.4c0-0.2-0.2-0.4-0.7-0.6c-1-0.3-1.4-0.9-1.4-1.5
			c0-0.9,0.8-1.6,2-1.6c0.6,0,1.1,0.1,1.4,0.3l-0.3,1c-0.2-0.1-0.6-0.3-1.1-0.3c-0.4,0-0.6,0.2-0.6,0.4c0,0.2,0.2,0.3,0.8,0.6
			c0.9,0.3,1.3,0.8,1.3,1.5c0,0.9-0.7,1.6-2.1,1.6c-0.6,0-1.2-0.1-1.6-0.3L259.6,107.8z"/>
	</g>
	<g>
		<path class="st3" d="M173,52.2c-0.3,0.1-0.9,0.3-1.7,0.3c-2.3,0-3.5-1.4-3.5-3.4c0-2.3,1.6-3.6,3.7-3.6c0.8,0,1.4,0.2,1.7,0.3
			l-0.3,1.2c-0.3-0.1-0.7-0.2-1.3-0.2c-1.2,0-2.1,0.7-2.1,2.2c0,1.3,0.8,2.2,2.2,2.2c0.5,0,1-0.1,1.3-0.2L173,52.2z"/>
		<path class="st3" d="M173.9,49.1c0-0.7,0-1.2,0-1.6h1.3l0,0.9h0c0.2-0.7,0.8-1,1.3-1c0.1,0,0.2,0,0.3,0v1.4c-0.1,0-0.2,0-0.4,0
			c-0.6,0-0.9,0.3-1,0.8c0,0.1,0,0.2,0,0.3v2.5h-1.5V49.1z"/>
		<path class="st3" d="M178.8,50.4c0,0.6,0.7,0.9,1.4,0.9c0.5,0,0.9-0.1,1.3-0.2l0.2,1c-0.5,0.2-1.1,0.3-1.8,0.3
			c-1.7,0-2.6-1-2.6-2.5c0-1.2,0.8-2.6,2.5-2.6c1.6,0,2.2,1.2,2.2,2.4c0,0.3,0,0.5,0,0.6H178.8z M180.6,49.3c0-0.4-0.2-1-0.9-1
			c-0.6,0-0.9,0.6-0.9,1H180.6z"/>
		<path class="st3" d="M185.7,52.3l-0.1-0.5h0c-0.3,0.4-0.8,0.6-1.4,0.6c-1,0-1.6-0.7-1.6-1.5c0-1.3,1.1-1.9,2.9-1.9V49
			c0-0.3-0.1-0.6-0.9-0.6c-0.5,0-1,0.2-1.3,0.4l-0.3-1c0.3-0.2,1-0.4,1.9-0.4c1.6,0,2.1,1,2.1,2.1v1.7c0,0.5,0,0.9,0.1,1.2H185.7z
			 M185.5,50c-0.8,0-1.4,0.2-1.4,0.8c0,0.4,0.3,0.6,0.6,0.6c0.4,0,0.7-0.2,0.8-0.6c0-0.1,0-0.2,0-0.3V50z"/>
		<path class="st3" d="M189.8,46.1v1.4h1.1v1.1h-1.1v1.8c0,0.6,0.1,0.9,0.6,0.9c0.2,0,0.3,0,0.5,0l0,1.1c-0.2,0.1-0.6,0.1-1,0.1
			c-0.5,0-0.9-0.2-1.1-0.4c-0.3-0.3-0.4-0.8-0.4-1.4v-2h-0.6v-1.1h0.6v-1.1L189.8,46.1z"/>
		<path class="st3" d="M192.9,50.4c0,0.6,0.7,0.9,1.4,0.9c0.5,0,0.9-0.1,1.3-0.2l0.2,1c-0.5,0.2-1.1,0.3-1.8,0.3
			c-1.7,0-2.6-1-2.6-2.5c0-1.2,0.8-2.6,2.5-2.6c1.6,0,2.2,1.2,2.2,2.4c0,0.3,0,0.5,0,0.6H192.9z M194.7,49.3c0-0.4-0.2-1-0.9-1
			c-0.6,0-0.9,0.6-0.9,1H194.7z"/>
		<path class="st3" d="M197,51c0.3,0.2,0.9,0.4,1.3,0.4c0.5,0,0.6-0.2,0.6-0.4c0-0.2-0.2-0.4-0.7-0.6c-1-0.3-1.4-0.9-1.4-1.5
			c0-0.9,0.8-1.6,2-1.6c0.6,0,1.1,0.1,1.4,0.3l-0.3,1c-0.2-0.1-0.6-0.3-1.1-0.3c-0.4,0-0.6,0.1-0.6,0.4c0,0.2,0.2,0.3,0.8,0.6
			c0.9,0.3,1.3,0.8,1.3,1.5c0,0.9-0.7,1.6-2.1,1.6c-0.6,0-1.2-0.1-1.6-0.3L197,51z"/>
		<path class="st3" d="M168.9,60.5h-2.5v1.6h2.8v1.2h-4.3v-6.7h4.2v1.2h-2.6v1.4h2.5V60.5z"/>
		<path class="st3" d="M170.2,60c0-0.6,0-1.1,0-1.6h1.3l0.1,0.7h0c0.2-0.3,0.7-0.8,1.5-0.8c1,0,1.7,0.7,1.7,2.1v2.9h-1.5v-2.7
			c0-0.6-0.2-1.1-0.8-1.1c-0.4,0-0.7,0.3-0.8,0.6c0,0.1-0.1,0.2-0.1,0.4v2.8h-1.5V60z"/>
		<path class="st3" d="M178.8,63.3l-0.1-0.5h0c-0.3,0.4-0.8,0.6-1.4,0.6c-1,0-1.6-0.7-1.6-1.5c0-1.3,1.1-1.9,2.9-1.9V60
			c0-0.3-0.1-0.6-0.9-0.6c-0.5,0-1,0.2-1.3,0.4l-0.3-1c0.3-0.2,1-0.4,1.9-0.4c1.6,0,2.1,1,2.1,2.1v1.7c0,0.5,0,0.9,0.1,1.2H178.8z
			 M178.7,61c-0.8,0-1.4,0.2-1.4,0.8c0,0.4,0.3,0.6,0.6,0.6c0.4,0,0.7-0.2,0.8-0.6c0-0.1,0-0.2,0-0.3V61z"/>
		<path class="st3" d="M181.3,63.3c0-0.3,0-0.9,0-1.5v-5.6h1.5V59h0c0.3-0.4,0.8-0.7,1.5-0.7c1.2,0,2,1,2,2.5c0,1.8-1.1,2.6-2.2,2.6
			c-0.6,0-1.1-0.2-1.5-0.8h0l-0.1,0.7H181.3z M182.9,61.3c0,0.1,0,0.2,0,0.3c0.1,0.4,0.4,0.7,0.9,0.7c0.7,0,1-0.5,1-1.4
			c0-0.8-0.3-1.4-1-1.4c-0.4,0-0.8,0.3-0.9,0.8c0,0.1,0,0.2,0,0.3V61.3z"/>
		<path class="st3" d="M187.3,56.2h1.5v7.1h-1.5V56.2z"/>
		<path class="st3" d="M191.6,57.1c0,0.4-0.3,0.8-0.8,0.8c-0.5,0-0.8-0.3-0.8-0.8c0-0.4,0.3-0.8,0.8-0.8
			C191.3,56.3,191.6,56.7,191.6,57.1z M190.1,63.3v-4.9h1.5v4.9H190.1z"/>
		<path class="st3" d="M192.8,60c0-0.6,0-1.1,0-1.6h1.3l0.1,0.7h0c0.2-0.3,0.7-0.8,1.5-0.8c1,0,1.7,0.7,1.7,2.1v2.9h-1.5v-2.7
			c0-0.6-0.2-1.1-0.8-1.1c-0.4,0-0.7,0.3-0.8,0.6c0,0.1-0.1,0.2-0.1,0.4v2.8h-1.5V60z"/>
		<path class="st3" d="M203.3,58.5c0,0.3,0,0.7,0,1.4v2.7c0,0.9-0.2,1.7-0.7,2.2c-0.5,0.5-1.3,0.6-2,0.6c-0.6,0-1.3-0.1-1.8-0.4
			l0.3-1.1c0.3,0.2,0.8,0.4,1.4,0.4c0.7,0,1.3-0.4,1.3-1.3v-0.3h0c-0.3,0.4-0.8,0.6-1.3,0.6c-1.2,0-2.1-1-2.1-2.4
			c0-1.6,1-2.6,2.2-2.6c0.7,0,1.1,0.3,1.3,0.7h0l0-0.6H203.3z M201.8,60.4c0-0.1,0-0.2,0-0.3c-0.1-0.4-0.4-0.7-0.8-0.7
			c-0.5,0-1,0.5-1,1.4c0,0.7,0.4,1.3,1,1.3c0.4,0,0.7-0.3,0.8-0.6c0-0.1,0-0.3,0-0.4V60.4z"/>
		<path class="st3" d="M159.8,71.5h-2.5v1.6h2.8v1.2h-4.3v-6.7h4.2v1.2h-2.6v1.4h2.5V71.5z"/>
		<path class="st3" d="M161.1,71c0-0.6,0-1.1,0-1.6h1.3l0.1,0.7h0c0.2-0.3,0.7-0.8,1.5-0.8c1,0,1.7,0.7,1.7,2.1v2.9h-1.5v-2.7
			c0-0.6-0.2-1.1-0.8-1.1c-0.4,0-0.7,0.3-0.8,0.6c0,0.1-0.1,0.2-0.1,0.4v2.8h-1.5V71z"/>
		<path class="st3" d="M167.9,69.5l0.7,2.3c0.1,0.4,0.2,0.8,0.3,1.2h0c0.1-0.4,0.2-0.8,0.3-1.2l0.6-2.3h1.6l-1.8,4.9h-1.5l-1.8-4.9
			H167.9z"/>
		<path class="st3" d="M173.7,68.1c0,0.4-0.3,0.8-0.8,0.8c-0.5,0-0.8-0.3-0.8-0.8c0-0.4,0.3-0.8,0.8-0.8
			C173.3,67.3,173.7,67.7,173.7,68.1z M172.1,74.3v-4.9h1.5v4.9H172.1z"/>
		<path class="st3" d="M174.8,71.1c0-0.7,0-1.2,0-1.6h1.3l0,0.9h0c0.2-0.7,0.8-1,1.3-1c0.1,0,0.2,0,0.3,0v1.4c-0.1,0-0.2,0-0.4,0
			c-0.6,0-0.9,0.3-1,0.8c0,0.1,0,0.2,0,0.3v2.5h-1.5V71.1z"/>
		<path class="st3" d="M183.4,71.8c0,1.8-1.3,2.6-2.6,2.6c-1.4,0-2.5-0.9-2.5-2.5s1-2.6,2.6-2.6C182.4,69.3,183.4,70.4,183.4,71.8z
			 M179.8,71.9c0,0.8,0.3,1.5,1,1.5c0.6,0,1-0.6,1-1.5c0-0.7-0.3-1.5-1-1.5C180.1,70.4,179.8,71.2,179.8,71.9z"/>
		<path class="st3" d="M184.3,71c0-0.6,0-1.1,0-1.6h1.3l0.1,0.7h0c0.2-0.3,0.7-0.8,1.5-0.8c1,0,1.7,0.7,1.7,2.1v2.9h-1.5v-2.7
			c0-0.6-0.2-1.1-0.8-1.1c-0.4,0-0.7,0.3-0.8,0.6c0,0.1-0.1,0.2-0.1,0.4v2.8h-1.5V71z"/>
		<path class="st3" d="M190.2,71c0-0.6,0-1.1,0-1.6h1.3l0.1,0.7h0c0.2-0.3,0.6-0.8,1.5-0.8c0.6,0,1.1,0.3,1.3,0.8h0
			c0.2-0.2,0.4-0.5,0.6-0.6c0.3-0.2,0.6-0.2,0.9-0.2c0.9,0,1.6,0.7,1.6,2.1v2.9h-1.5v-2.7c0-0.7-0.2-1.1-0.7-1.1
			c-0.3,0-0.6,0.2-0.7,0.5c0,0.1-0.1,0.3-0.1,0.4v2.9h-1.5v-2.7c0-0.6-0.2-1-0.7-1c-0.4,0-0.6,0.3-0.7,0.5c0,0.1-0.1,0.3-0.1,0.4
			v2.8h-1.5V71z"/>
		<path class="st3" d="M200,72.4c0,0.6,0.7,0.9,1.4,0.9c0.5,0,0.9-0.1,1.3-0.2l0.2,1c-0.5,0.2-1.1,0.3-1.8,0.3c-1.7,0-2.6-1-2.6-2.5
			c0-1.2,0.8-2.6,2.5-2.6c1.6,0,2.2,1.2,2.2,2.4c0,0.3,0,0.5,0,0.6H200z M201.7,71.3c0-0.4-0.2-1-0.9-1c-0.6,0-0.9,0.6-0.9,1H201.7z
			"/>
		<path class="st3" d="M204.1,71c0-0.6,0-1.1,0-1.6h1.3l0.1,0.7h0c0.2-0.3,0.7-0.8,1.5-0.8c1,0,1.7,0.7,1.7,2.1v2.9h-1.5v-2.7
			c0-0.6-0.2-1.1-0.8-1.1c-0.4,0-0.7,0.3-0.8,0.6c0,0.1-0.1,0.2-0.1,0.4v2.8h-1.5V71z"/>
		<path class="st3" d="M211.6,68.1v1.4h1.1v1.1h-1.1v1.8c0,0.6,0.1,0.9,0.6,0.9c0.2,0,0.3,0,0.5,0l0,1.1c-0.2,0.1-0.6,0.1-1,0.1
			c-0.5,0-0.9-0.2-1.1-0.4c-0.3-0.3-0.4-0.8-0.4-1.4v-2h-0.6v-1.1h0.6v-1.1L211.6,68.1z"/>
	</g>
	<g>
		<path class="st3" d="M96.2,65.9c-0.5,0.2-1.4,0.4-2.2,0.4c-1.2,0-2.1-0.3-2.7-0.9c-0.6-0.6-1-1.5-0.9-2.4c0-2.2,1.6-3.5,3.8-3.5
			c0.9,0,1.5,0.2,1.9,0.3l-0.3,1.2c-0.4-0.2-0.8-0.3-1.6-0.3c-1.3,0-2.2,0.7-2.2,2.2c0,1.4,0.9,2.2,2.1,2.2c0.4,0,0.6,0,0.8-0.1
			v-1.4h-1v-1.2h2.5V65.9z"/>
		<path class="st3" d="M98.6,64.2c0,0.6,0.7,0.9,1.4,0.9c0.5,0,0.9-0.1,1.3-0.2l0.2,1c-0.5,0.2-1.1,0.3-1.8,0.3
			c-1.7,0-2.6-1-2.6-2.5c0-1.2,0.8-2.6,2.5-2.6c1.6,0,2.2,1.2,2.2,2.4c0,0.3,0,0.5,0,0.6H98.6z M100.4,63.2c0-0.4-0.2-1-0.9-1
			c-0.6,0-0.9,0.6-0.9,1H100.4z"/>
		<path class="st3" d="M102.7,62.9c0-0.6,0-1.1,0-1.6h1.3L104,62h0c0.2-0.3,0.7-0.8,1.5-0.8c1,0,1.7,0.7,1.7,2.1v2.9h-1.5v-2.7
			c0-0.6-0.2-1.1-0.8-1.1c-0.4,0-0.7,0.3-0.8,0.6c0,0.1-0.1,0.2-0.1,0.4v2.8h-1.5V62.9z"/>
		<path class="st3" d="M109.7,64.2c0,0.6,0.7,0.9,1.4,0.9c0.5,0,0.9-0.1,1.3-0.2l0.2,1c-0.5,0.2-1.1,0.3-1.8,0.3
			c-1.7,0-2.6-1-2.6-2.5c0-1.2,0.8-2.6,2.5-2.6c1.6,0,2.2,1.2,2.2,2.4c0,0.3,0,0.5,0,0.6H109.7z M111.5,63.2c0-0.4-0.2-1-0.9-1
			c-0.6,0-0.9,0.6-0.9,1H111.5z"/>
		<path class="st3" d="M113.8,62.9c0-0.7,0-1.2,0-1.6h1.3l0,0.9h0c0.2-0.7,0.8-1,1.3-1c0.1,0,0.2,0,0.3,0v1.4c-0.1,0-0.2,0-0.4,0
			c-0.6,0-0.9,0.3-1,0.8c0,0.1,0,0.2,0,0.3v2.5h-1.5V62.9z"/>
		<path class="st3" d="M120.3,66.2l-0.1-0.5h0c-0.3,0.4-0.8,0.6-1.4,0.6c-1,0-1.6-0.7-1.6-1.5c0-1.3,1.1-1.9,2.9-1.9v-0.1
			c0-0.3-0.1-0.6-0.9-0.6c-0.5,0-1,0.2-1.3,0.4l-0.3-1c0.3-0.2,1-0.4,1.9-0.4c1.6,0,2.1,1,2.1,2.1V65c0,0.5,0,0.9,0.1,1.2H120.3z
			 M120.1,63.9c-0.8,0-1.4,0.2-1.4,0.8c0,0.4,0.3,0.6,0.6,0.6c0.4,0,0.7-0.2,0.8-0.6c0-0.1,0-0.2,0-0.3V63.9z"/>
		<path class="st3" d="M124.4,59.9v1.4h1.1v1.1h-1.1v1.8c0,0.6,0.1,0.9,0.6,0.9c0.2,0,0.3,0,0.5,0l0,1.1c-0.2,0.1-0.6,0.1-1,0.1
			c-0.5,0-0.9-0.2-1.1-0.4c-0.3-0.3-0.4-0.8-0.4-1.4v-2h-0.6v-1.1h0.6v-1.1L124.4,59.9z"/>
		<path class="st3" d="M127.5,64.2c0,0.6,0.7,0.9,1.4,0.9c0.5,0,0.9-0.1,1.3-0.2l0.2,1c-0.5,0.2-1.1,0.3-1.8,0.3
			c-1.7,0-2.6-1-2.6-2.5c0-1.2,0.8-2.6,2.5-2.6c1.6,0,2.2,1.2,2.2,2.4c0,0.3,0,0.5,0,0.6H127.5z M129.3,63.2c0-0.4-0.2-1-0.9-1
			c-0.6,0-0.9,0.6-0.9,1H129.3z"/>
		<path class="st3" d="M131.6,64.9c0.3,0.2,0.9,0.4,1.3,0.4c0.5,0,0.6-0.2,0.6-0.4c0-0.2-0.2-0.4-0.7-0.6c-1-0.3-1.4-0.9-1.4-1.5
			c0-0.9,0.8-1.6,2-1.6c0.6,0,1.1,0.1,1.4,0.3l-0.3,1c-0.2-0.1-0.6-0.3-1.1-0.3c-0.4,0-0.6,0.1-0.6,0.4c0,0.2,0.2,0.3,0.8,0.6
			c0.9,0.3,1.3,0.8,1.3,1.5c0,0.9-0.7,1.6-2.1,1.6c-0.6,0-1.2-0.1-1.6-0.3L131.6,64.9z"/>
		<path class="st3" d="M94.3,70.5c0.6-0.1,1.3-0.1,2.1-0.1c1.3,0,2.1,0.2,2.8,0.7c0.7,0.5,1.1,1.3,1.1,2.5c0,1.3-0.5,2.2-1.1,2.7
			c-0.7,0.6-1.8,0.9-3.1,0.9c-0.8,0-1.3,0-1.7-0.1V70.5z M95.9,76c0.1,0,0.3,0,0.5,0c1.4,0,2.3-0.7,2.3-2.4c0-1.4-0.8-2.1-2.1-2.1
			c-0.3,0-0.6,0-0.7,0.1V76z"/>
		<path class="st3" d="M102.4,75.2c0,0.6,0.7,0.9,1.4,0.9c0.5,0,0.9-0.1,1.3-0.2l0.2,1c-0.5,0.2-1.1,0.3-1.8,0.3
			c-1.7,0-2.6-1-2.6-2.5c0-1.2,0.8-2.6,2.5-2.6c1.6,0,2.2,1.2,2.2,2.4c0,0.3,0,0.5,0,0.6H102.4z M104.2,74.2c0-0.4-0.2-1-0.9-1
			c-0.6,0-0.9,0.6-0.9,1H104.2z"/>
		<path class="st3" d="M106.5,73.9c0-0.6,0-1.1,0-1.6h1.3l0.1,0.7h0c0.2-0.3,0.6-0.8,1.5-0.8c0.6,0,1.1,0.3,1.3,0.8h0
			c0.2-0.2,0.4-0.5,0.6-0.6c0.3-0.2,0.6-0.2,0.9-0.2c0.9,0,1.6,0.7,1.6,2.1v2.9h-1.5v-2.7c0-0.7-0.2-1.1-0.7-1.1
			c-0.3,0-0.6,0.2-0.7,0.5c0,0.1-0.1,0.3-0.1,0.4v2.9h-1.5v-2.7c0-0.6-0.2-1-0.7-1c-0.4,0-0.6,0.3-0.7,0.5c0,0.1-0.1,0.3-0.1,0.4
			v2.8h-1.5V73.9z"/>
		<path class="st3" d="M117.9,77.2l-0.1-0.5h0c-0.3,0.4-0.8,0.6-1.4,0.6c-1,0-1.6-0.7-1.6-1.5c0-1.3,1.1-1.9,2.9-1.9v-0.1
			c0-0.3-0.1-0.6-0.9-0.6c-0.5,0-1,0.2-1.3,0.4l-0.3-1c0.3-0.2,1-0.4,1.9-0.4c1.6,0,2.1,1,2.1,2.1V76c0,0.5,0,0.9,0.1,1.2H117.9z
			 M117.7,74.9c-0.8,0-1.4,0.2-1.4,0.8c0,0.4,0.3,0.6,0.6,0.6c0.4,0,0.7-0.2,0.8-0.6c0-0.1,0-0.2,0-0.3V74.9z"/>
		<path class="st3" d="M120.4,73.9c0-0.6,0-1.1,0-1.6h1.3l0.1,0.7h0c0.2-0.3,0.7-0.8,1.5-0.8c1,0,1.7,0.7,1.7,2.1v2.9h-1.5v-2.7
			c0-0.6-0.2-1.1-0.8-1.1c-0.4,0-0.7,0.3-0.8,0.6c0,0.1-0.1,0.2-0.1,0.4v2.8h-1.5V73.9z"/>
		<path class="st3" d="M131,70.1v5.6c0,0.5,0,1.1,0,1.5h-1.3l-0.1-0.7h0c-0.3,0.5-0.9,0.8-1.5,0.8c-1.2,0-2.1-1-2.1-2.5
			c0-1.6,1-2.6,2.2-2.6c0.6,0,1.1,0.2,1.3,0.5h0v-2.6H131z M129.5,74.4c0-0.1,0-0.2,0-0.3c-0.1-0.4-0.4-0.7-0.9-0.7
			c-0.7,0-1,0.6-1,1.4c0,0.8,0.4,1.3,1,1.3c0.4,0,0.8-0.3,0.9-0.7c0-0.1,0-0.2,0-0.3V74.4z"/>
	</g>
	<g>
		<path class="st3" d="M262.5,198.4H260v1.6h2.8v1.2h-4.3v-6.7h4.2v1.2H260v1.4h2.5V198.4z"/>
		<path class="st3" d="M263.8,197.9c0-0.6,0-1.1,0-1.6h1.3l0.1,0.7h0c0.2-0.3,0.6-0.8,1.5-0.8c0.6,0,1.1,0.3,1.3,0.8h0
			c0.2-0.2,0.4-0.5,0.6-0.6c0.3-0.2,0.6-0.2,0.9-0.2c0.9,0,1.6,0.7,1.6,2.1v2.9h-1.5v-2.7c0-0.7-0.2-1.1-0.7-1.1
			c-0.3,0-0.6,0.2-0.7,0.5c0,0.1-0.1,0.3-0.1,0.4v2.9h-1.5v-2.7c0-0.6-0.2-1-0.7-1c-0.4,0-0.6,0.3-0.7,0.5c0,0.1-0.1,0.3-0.1,0.4
			v2.8h-1.5V197.9z"/>
		<path class="st3" d="M272.4,198c0-0.6,0-1.2,0-1.6h1.3l0.1,0.7h0c0.4-0.5,0.9-0.8,1.6-0.8c1.1,0,2,0.9,2,2.5
			c0,1.8-1.1,2.6-2.2,2.6c-0.6,0-1-0.2-1.3-0.6h0v2.4h-1.5V198z M273.9,199.1c0,0.1,0,0.2,0,0.3c0.1,0.4,0.4,0.7,0.9,0.7
			c0.7,0,1-0.5,1-1.4c0-0.8-0.3-1.4-1-1.4c-0.4,0-0.8,0.3-0.9,0.8c0,0.1,0,0.2,0,0.3V199.1z"/>
		<path class="st3" d="M283.2,198.7c0,1.8-1.3,2.6-2.6,2.6c-1.4,0-2.5-0.9-2.5-2.5s1-2.6,2.6-2.6
			C282.2,196.2,283.2,197.3,283.2,198.7z M279.7,198.8c0,0.8,0.3,1.5,1,1.5c0.6,0,1-0.6,1-1.5c0-0.7-0.3-1.5-1-1.5
			C279.9,197.3,279.7,198.1,279.7,198.8z"/>
		<path class="st3" d="M285.1,196.4l0.4,2c0.1,0.5,0.2,1,0.3,1.6h0c0.1-0.6,0.2-1.1,0.4-1.6l0.5-2h1.2l0.5,1.9
			c0.1,0.5,0.3,1.1,0.4,1.7h0c0.1-0.6,0.2-1.1,0.3-1.7l0.4-1.9h1.5l-1.5,4.9H288l-0.5-1.7c-0.1-0.5-0.2-0.9-0.3-1.5h0
			c-0.1,0.6-0.2,1.1-0.3,1.5l-0.5,1.7H285l-1.4-4.9H285.1z"/>
		<path class="st3" d="M292.7,199.3c0,0.6,0.7,0.9,1.4,0.9c0.5,0,0.9-0.1,1.3-0.2l0.2,1c-0.5,0.2-1.1,0.3-1.8,0.3
			c-1.7,0-2.6-1-2.6-2.5c0-1.2,0.8-2.6,2.5-2.6c1.6,0,2.2,1.2,2.2,2.4c0,0.3,0,0.5,0,0.6H292.7z M294.5,198.2c0-0.4-0.2-1-0.9-1
			c-0.6,0-0.9,0.6-0.9,1H294.5z"/>
		<path class="st3" d="M296.8,198c0-0.7,0-1.2,0-1.6h1.3l0,0.9h0c0.2-0.7,0.8-1,1.3-1c0.1,0,0.2,0,0.3,0v1.4c-0.1,0-0.2,0-0.4,0
			c-0.6,0-0.9,0.3-1,0.8c0,0.1,0,0.2,0,0.3v2.5h-1.5V198z"/>
		<path class="st3" d="M300.6,199.9c0.3,0.2,0.9,0.4,1.3,0.4c0.5,0,0.6-0.2,0.6-0.4c0-0.2-0.2-0.4-0.7-0.6c-1-0.3-1.4-0.9-1.4-1.5
			c0-0.9,0.8-1.6,2-1.6c0.6,0,1.1,0.1,1.4,0.3l-0.3,1c-0.2-0.1-0.6-0.3-1.1-0.3c-0.4,0-0.6,0.2-0.6,0.4c0,0.2,0.2,0.3,0.8,0.6
			c0.9,0.3,1.3,0.8,1.3,1.5c0,0.9-0.7,1.6-2.1,1.6c-0.6,0-1.2-0.1-1.6-0.3L300.6,199.9z"/>
		<path class="st3" d="M271.4,212.1c-0.3,0.1-0.9,0.3-1.7,0.3c-2.3,0-3.5-1.4-3.5-3.4c0-2.3,1.6-3.6,3.7-3.6c0.8,0,1.4,0.2,1.7,0.3
			l-0.3,1.2c-0.3-0.1-0.7-0.2-1.3-0.2c-1.2,0-2.1,0.7-2.1,2.2c0,1.3,0.8,2.2,2.2,2.2c0.5,0,1-0.1,1.3-0.2L271.4,212.1z"/>
		<path class="st3" d="M272.4,205.1h1.5v7.1h-1.5V205.1z"/>
		<path class="st3" d="M276.7,206c0,0.4-0.3,0.8-0.8,0.8c-0.5,0-0.8-0.3-0.8-0.8c0-0.4,0.3-0.8,0.8-0.8
			C276.4,205.2,276.7,205.6,276.7,206z M275.1,212.2v-4.9h1.5v4.9H275.1z"/>
		<path class="st3" d="M279,210.3c0,0.6,0.7,0.9,1.4,0.9c0.5,0,0.9-0.1,1.3-0.2l0.2,1c-0.5,0.2-1.1,0.3-1.8,0.3
			c-1.7,0-2.6-1-2.6-2.5c0-1.2,0.8-2.6,2.5-2.6c1.6,0,2.2,1.2,2.2,2.4c0,0.3,0,0.5,0,0.6H279z M280.8,209.2c0-0.4-0.2-1-0.9-1
			c-0.6,0-0.9,0.6-0.9,1H280.8z"/>
		<path class="st3" d="M283.1,208.9c0-0.6,0-1.1,0-1.6h1.3l0.1,0.7h0c0.2-0.3,0.7-0.8,1.5-0.8c1,0,1.7,0.7,1.7,2.1v2.9h-1.5v-2.7
			c0-0.6-0.2-1.1-0.8-1.1c-0.4,0-0.7,0.3-0.8,0.6c0,0.1-0.1,0.2-0.1,0.4v2.8h-1.5V208.9z"/>
		<path class="st3" d="M290.6,206v1.4h1.1v1.1h-1.1v1.8c0,0.6,0.1,0.9,0.6,0.9c0.2,0,0.3,0,0.5,0l0,1.1c-0.2,0.1-0.6,0.1-1,0.1
			c-0.5,0-0.9-0.2-1.1-0.4c-0.3-0.3-0.4-0.8-0.4-1.4v-2h-0.6v-1.1h0.6v-1.1L290.6,206z"/>
		<path class="st3" d="M292.6,210.9c0.3,0.2,0.9,0.4,1.3,0.4c0.5,0,0.6-0.2,0.6-0.4c0-0.2-0.2-0.4-0.7-0.6c-1-0.3-1.4-0.9-1.4-1.5
			c0-0.9,0.8-1.6,2-1.6c0.6,0,1.1,0.1,1.4,0.3l-0.3,1c-0.2-0.1-0.6-0.3-1.1-0.3c-0.4,0-0.6,0.2-0.6,0.4c0,0.2,0.2,0.3,0.8,0.6
			c0.9,0.3,1.3,0.8,1.3,1.5c0,0.9-0.7,1.6-2.1,1.6c-0.6,0-1.2-0.1-1.6-0.3L292.6,210.9z"/>
	</g>
	<g>
		<path class="st3" d="M79.8,282.4h-2.5v1.6h2.8v1.2h-4.3v-6.7h4.2v1.2h-2.6v1.4h2.5V282.4z"/>
		<path class="st3" d="M81,281.9c0-0.6,0-1.1,0-1.6h1.3l0.1,0.7h0c0.2-0.3,0.7-0.8,1.5-0.8c1,0,1.7,0.7,1.7,2.1v2.9h-1.5v-2.7
			c0-0.6-0.2-1.1-0.8-1.1c-0.4,0-0.7,0.3-0.8,0.6c0,0.1-0.1,0.2-0.1,0.4v2.8H81V281.9z"/>
		<path class="st3" d="M86.9,278.1h1.5v2.8h0c0.2-0.2,0.4-0.4,0.6-0.5c0.2-0.1,0.5-0.2,0.8-0.2c1,0,1.7,0.7,1.7,2.1v2.9H90v-2.7
			c0-0.6-0.2-1.1-0.8-1.1c-0.4,0-0.6,0.3-0.8,0.5c0,0.1,0,0.2,0,0.3v2.9h-1.5V278.1z"/>
		<path class="st3" d="M95.5,285.2l-0.1-0.5h0c-0.3,0.4-0.8,0.6-1.4,0.6c-1,0-1.6-0.7-1.6-1.5c0-1.3,1.1-1.9,2.9-1.9v-0.1
			c0-0.3-0.1-0.6-0.9-0.6c-0.5,0-1,0.2-1.3,0.4l-0.3-1c0.3-0.2,1-0.4,1.9-0.4c1.6,0,2.1,1,2.1,2.1v1.7c0,0.5,0,0.9,0.1,1.2H95.5z
			 M95.4,282.9c-0.8,0-1.4,0.2-1.4,0.8c0,0.4,0.3,0.6,0.6,0.6c0.4,0,0.7-0.2,0.8-0.6c0-0.1,0-0.2,0-0.3V282.9z"/>
		<path class="st3" d="M98,281.9c0-0.6,0-1.1,0-1.6h1.3l0.1,0.7h0c0.2-0.3,0.7-0.8,1.5-0.8c1,0,1.7,0.7,1.7,2.1v2.9h-1.5v-2.7
			c0-0.6-0.2-1.1-0.8-1.1c-0.4,0-0.7,0.3-0.8,0.6c0,0.1-0.1,0.2-0.1,0.4v2.8H98V281.9z"/>
		<path class="st3" d="M107.6,285.1c-0.3,0.1-0.8,0.2-1.4,0.2c-1.6,0-2.6-1-2.6-2.5c0-1.4,1-2.6,2.8-2.6c0.4,0,0.8,0.1,1.2,0.2
			l-0.2,1.1c-0.2-0.1-0.5-0.1-0.8-0.1c-0.8,0-1.3,0.6-1.3,1.4c0,0.9,0.6,1.4,1.3,1.4c0.4,0,0.6-0.1,0.9-0.1L107.6,285.1z"/>
		<path class="st3" d="M109.5,283.3c0,0.6,0.7,0.9,1.4,0.9c0.5,0,0.9-0.1,1.3-0.2l0.2,1c-0.5,0.2-1.1,0.3-1.8,0.3
			c-1.7,0-2.6-1-2.6-2.5c0-1.2,0.8-2.6,2.5-2.6c1.6,0,2.2,1.2,2.2,2.4c0,0.3,0,0.5,0,0.6H109.5z M111.3,282.2c0-0.4-0.2-1-0.9-1
			c-0.6,0-0.9,0.6-0.9,1H111.3z"/>
		<path class="st3" d="M113.6,283.9c0.3,0.2,0.9,0.4,1.3,0.4c0.5,0,0.6-0.2,0.6-0.4c0-0.2-0.2-0.4-0.7-0.6c-1-0.3-1.4-0.9-1.4-1.5
			c0-0.9,0.8-1.6,2-1.6c0.6,0,1.1,0.1,1.4,0.3l-0.3,1c-0.2-0.1-0.6-0.3-1.1-0.3c-0.4,0-0.6,0.2-0.6,0.4c0,0.2,0.2,0.3,0.8,0.6
			c0.9,0.3,1.3,0.8,1.3,1.5c0,0.9-0.7,1.6-2.1,1.6c-0.6,0-1.2-0.1-1.6-0.3L113.6,283.9z"/>
		<path class="st3" d="M74.6,288.5h4.1v1.2h-2.6v1.5h2.4v1.2h-2.4v2.7h-1.5V288.5z"/>
		<path class="st3" d="M84.4,292.7c0,1.8-1.3,2.6-2.6,2.6c-1.4,0-2.5-0.9-2.5-2.5s1-2.6,2.6-2.6C83.4,290.2,84.4,291.3,84.4,292.7z
			 M80.9,292.8c0,0.8,0.3,1.5,1,1.5c0.6,0,1-0.6,1-1.5c0-0.7-0.3-1.5-1-1.5C81.1,291.3,80.9,292.1,80.9,292.8z"/>
		<path class="st3" d="M85.3,288.1h1.5v7.1h-1.5V288.1z"/>
		<path class="st3" d="M88.1,288.1h1.5v7.1h-1.5V288.1z"/>
		<path class="st3" d="M95.7,292.7c0,1.8-1.3,2.6-2.6,2.6c-1.4,0-2.5-0.9-2.5-2.5s1-2.6,2.6-2.6C94.7,290.2,95.7,291.3,95.7,292.7z
			 M92.1,292.8c0,0.8,0.3,1.5,1,1.5c0.6,0,1-0.6,1-1.5c0-0.7-0.3-1.5-1-1.5C92.4,291.3,92.1,292.1,92.1,292.8z"/>
		<path class="st3" d="M97.6,290.4l0.4,2c0.1,0.5,0.2,1,0.3,1.6h0c0.1-0.6,0.2-1.1,0.4-1.6l0.5-2h1.2l0.5,1.9
			c0.1,0.5,0.3,1.1,0.4,1.7h0c0.1-0.6,0.2-1.1,0.3-1.7l0.4-1.9h1.5l-1.5,4.9h-1.4l-0.5-1.7c-0.1-0.5-0.2-0.9-0.3-1.5h0
			c-0.1,0.6-0.2,1.1-0.3,1.5l-0.5,1.7h-1.4l-1.4-4.9H97.6z"/>
		<path class="st3" d="M106.4,292.1v1h-2.6v-1H106.4z"/>
		<path class="st3" d="M111.9,293.7c0,0.6,0,1.2,0,1.6h-1.3l-0.1-0.7h0c-0.2,0.3-0.6,0.8-1.5,0.8c-1,0-1.7-0.6-1.7-2.1v-2.9h1.5v2.6
			c0,0.7,0.2,1.1,0.8,1.1c0.4,0,0.7-0.3,0.8-0.5c0-0.1,0-0.2,0-0.3v-2.9h1.5V293.7z"/>
		<path class="st3" d="M113.1,292c0-0.6,0-1.2,0-1.6h1.3l0.1,0.7h0c0.4-0.5,0.9-0.8,1.6-0.8c1.1,0,2,0.9,2,2.5
			c0,1.8-1.1,2.6-2.2,2.6c-0.6,0-1-0.2-1.3-0.6h0v2.4h-1.5V292z M114.6,293.1c0,0.1,0,0.2,0,0.3c0.1,0.4,0.4,0.7,0.9,0.7
			c0.7,0,1-0.5,1-1.4c0-0.8-0.3-1.4-1-1.4c-0.4,0-0.8,0.3-0.9,0.8c0,0.1,0,0.2,0,0.3V293.1z"/>
	</g>
	<g>
		<path class="st3" d="M22.3,141.3c0.5-0.1,1.2-0.1,2-0.1c1,0,1.7,0.1,2.2,0.5c0.4,0.3,0.6,0.8,0.6,1.4c0,0.9-0.6,1.4-1.2,1.7v0
			c0.5,0.2,0.7,0.6,0.9,1.3c0.2,0.8,0.4,1.6,0.5,1.9h-1.6c-0.1-0.2-0.3-0.7-0.5-1.6c-0.2-0.8-0.5-1.1-1.1-1.1h-0.5v2.6h-1.5V141.3z
			 M23.8,144.2h0.6c0.8,0,1.2-0.4,1.2-1c0-0.6-0.4-0.9-1.1-0.9c-0.4,0-0.6,0-0.7,0V144.2z"/>
		<path class="st3" d="M29.4,145.9c0,0.6,0.7,0.9,1.4,0.9c0.5,0,0.9-0.1,1.3-0.2l0.2,1c-0.5,0.2-1.1,0.3-1.8,0.3
			c-1.7,0-2.6-1-2.6-2.5c0-1.2,0.8-2.6,2.5-2.6c1.6,0,2.2,1.2,2.2,2.4c0,0.3,0,0.5,0,0.6H29.4z M31.1,144.9c0-0.4-0.2-1-0.9-1
			c-0.6,0-0.9,0.6-0.9,1H31.1z"/>
		<path class="st3" d="M35,141.7c0,0.4-0.3,0.8-0.8,0.8c-0.5,0-0.8-0.3-0.8-0.8c0-0.4,0.3-0.8,0.8-0.8C34.7,140.9,35,141.2,35,141.7
			z M33.5,147.9V143H35v4.9H33.5z"/>
		<path class="st3" d="M36.2,144.6c0-0.6,0-1.1,0-1.6h1.3l0.1,0.7h0c0.2-0.3,0.7-0.8,1.5-0.8c1,0,1.7,0.7,1.7,2.1v2.9h-1.5v-2.7
			c0-0.6-0.2-1.1-0.8-1.1c-0.4,0-0.7,0.3-0.8,0.6c0,0.1-0.1,0.2-0.1,0.4v2.8h-1.5V144.6z"/>
		<path class="st3" d="M42.2,147.9v-3.8h-0.6V143h0.6v-0.2c0-0.6,0.2-1.2,0.6-1.6c0.4-0.4,0.9-0.5,1.3-0.5c0.3,0,0.6,0,0.8,0.1
			L45,142c-0.1,0-0.3-0.1-0.5-0.1c-0.5,0-0.7,0.4-0.7,0.9v0.2h1v1.1h-1v3.8H42.2z"/>
		<path class="st3" d="M50.2,145.4c0,1.8-1.3,2.6-2.6,2.6c-1.4,0-2.5-0.9-2.5-2.5s1-2.6,2.6-2.6C49.2,142.9,50.2,143.9,50.2,145.4z
			 M46.7,145.5c0,0.8,0.3,1.5,1,1.5c0.6,0,1-0.6,1-1.5c0-0.7-0.3-1.5-1-1.5C46.9,144,46.7,144.7,46.7,145.5z"/>
		<path class="st3" d="M51.2,144.6c0-0.7,0-1.2,0-1.6h1.3l0,0.9h0c0.2-0.7,0.8-1,1.3-1c0.1,0,0.2,0,0.3,0v1.4c-0.1,0-0.2,0-0.4,0
			c-0.6,0-0.9,0.3-1,0.8c0,0.1,0,0.2,0,0.3v2.5h-1.5V144.6z"/>
		<path class="st3" d="M58.5,147.8c-0.3,0.1-0.8,0.2-1.4,0.2c-1.6,0-2.6-1-2.6-2.5c0-1.4,1-2.6,2.8-2.6c0.4,0,0.8,0.1,1.2,0.2
			l-0.2,1.1c-0.2-0.1-0.5-0.1-0.8-0.1c-0.8,0-1.3,0.6-1.3,1.4c0,0.9,0.6,1.4,1.3,1.4c0.4,0,0.6-0.1,0.9-0.1L58.5,147.8z"/>
		<path class="st3" d="M60.4,145.9c0,0.6,0.7,0.9,1.4,0.9c0.5,0,0.9-0.1,1.3-0.2l0.2,1c-0.5,0.2-1.1,0.3-1.8,0.3
			c-1.7,0-2.6-1-2.6-2.5c0-1.2,0.8-2.6,2.5-2.6c1.6,0,2.2,1.2,2.2,2.4c0,0.3,0,0.5,0,0.6H60.4z M62.2,144.9c0-0.4-0.2-1-0.9-1
			c-0.6,0-0.9,0.6-0.9,1H62.2z"/>
		<path class="st3" d="M64.5,146.6c0.3,0.2,0.9,0.4,1.3,0.4c0.5,0,0.6-0.2,0.6-0.4c0-0.2-0.2-0.4-0.7-0.6c-1-0.3-1.4-0.9-1.4-1.5
			c0-0.9,0.8-1.6,2-1.6c0.6,0,1.1,0.1,1.4,0.3l-0.3,1c-0.2-0.1-0.6-0.3-1.1-0.3c-0.4,0-0.6,0.2-0.6,0.4c0,0.2,0.2,0.3,0.8,0.6
			c0.9,0.3,1.3,0.8,1.3,1.5c0,0.9-0.7,1.6-2.1,1.6c-0.6,0-1.2-0.1-1.6-0.3L64.5,146.6z"/>
		<path class="st3" d="M25.7,152.2h1.5v5.5h2.7v1.3h-4.2V152.2z"/>
		<path class="st3" d="M32.3,152.7c0,0.4-0.3,0.8-0.8,0.8c-0.5,0-0.8-0.3-0.8-0.8c0-0.4,0.3-0.8,0.8-0.8
			C32,151.9,32.3,152.2,32.3,152.7z M30.7,158.9V154h1.5v4.9H30.7z"/>
		<path class="st3" d="M33.5,155.6c0-0.6,0-1.1,0-1.6h1.3l0.1,0.7h0c0.2-0.3,0.7-0.8,1.5-0.8c1,0,1.7,0.7,1.7,2.1v2.9h-1.5v-2.7
			c0-0.6-0.2-1.1-0.8-1.1c-0.4,0-0.7,0.3-0.8,0.6c0,0.1-0.1,0.2-0.1,0.4v2.8h-1.5V155.6z"/>
		<path class="st3" d="M40.8,156.1L40.8,156.1c0.1-0.2,0.2-0.4,0.4-0.6l1-1.5H44l-1.7,2l2,2.9h-1.9l-1.2-2l-0.4,0.5v1.5h-1.5v-7.1
			h1.5V156.1z"/>
		<path class="st3" d="M47.6,158.9l-0.1-0.5h0c-0.3,0.4-0.8,0.6-1.4,0.6c-1,0-1.6-0.7-1.6-1.5c0-1.3,1.1-1.9,2.9-1.9v-0.1
			c0-0.3-0.1-0.6-0.9-0.6c-0.5,0-1,0.2-1.3,0.4l-0.3-1c0.3-0.2,1-0.4,1.9-0.4c1.6,0,2.1,1,2.1,2.1v1.7c0,0.5,0,0.9,0.1,1.2H47.6z
			 M47.4,156.6c-0.8,0-1.4,0.2-1.4,0.8c0,0.4,0.3,0.6,0.6,0.6c0.4,0,0.7-0.2,0.8-0.6c0-0.1,0-0.2,0-0.3V156.6z"/>
		<path class="st3" d="M54.7,154c0,0.3,0,0.7,0,1.4v2.7c0,0.9-0.2,1.7-0.7,2.2c-0.5,0.5-1.3,0.6-2,0.6c-0.6,0-1.3-0.1-1.8-0.4
			l0.3-1.1c0.3,0.2,0.8,0.4,1.4,0.4c0.7,0,1.3-0.4,1.3-1.3v-0.3h0c-0.3,0.4-0.8,0.6-1.3,0.6c-1.2,0-2.1-1-2.1-2.4
			c0-1.6,1-2.6,2.2-2.6c0.7,0,1.1,0.3,1.3,0.7h0l0-0.6H54.7z M53.2,156c0-0.1,0-0.2,0-0.3c-0.1-0.4-0.4-0.7-0.8-0.7
			c-0.5,0-1,0.5-1,1.4c0,0.7,0.4,1.3,1,1.3c0.4,0,0.7-0.3,0.8-0.6c0-0.1,0-0.3,0-0.4V156z"/>
		<path class="st3" d="M57.1,156.9c0,0.6,0.7,0.9,1.4,0.9c0.5,0,0.9-0.1,1.3-0.2l0.2,1c-0.5,0.2-1.1,0.3-1.8,0.3
			c-1.7,0-2.6-1-2.6-2.5c0-1.2,0.8-2.6,2.5-2.6c1.6,0,2.2,1.2,2.2,2.4c0,0.3,0,0.5,0,0.6H57.1z M58.9,155.9c0-0.4-0.2-1-0.9-1
			c-0.6,0-0.9,0.6-0.9,1H58.9z"/>
		<path class="st3" d="M61.2,157.6c0.3,0.2,0.9,0.4,1.3,0.4c0.5,0,0.6-0.2,0.6-0.4c0-0.2-0.2-0.4-0.7-0.6c-1-0.3-1.4-0.9-1.4-1.5
			c0-0.9,0.8-1.6,2-1.6c0.6,0,1.1,0.1,1.4,0.3l-0.3,1c-0.2-0.1-0.6-0.3-1.1-0.3c-0.4,0-0.6,0.2-0.6,0.4c0,0.2,0.2,0.3,0.8,0.6
			c0.9,0.3,1.3,0.8,1.3,1.5c0,0.9-0.7,1.6-2.1,1.6c-0.6,0-1.2-0.1-1.6-0.3L61.2,157.6z"/>
	</g>
	<g>
		<path class="st3" d="M34.7,209.3c0.4,0.2,1,0.4,1.7,0.4c0.7,0,1.1-0.3,1.1-0.7c0-0.4-0.3-0.7-1.1-1c-1.1-0.4-1.8-1-1.8-2
			c0-1.1,1-2,2.5-2c0.8,0,1.3,0.2,1.7,0.3l-0.3,1.2c-0.3-0.1-0.8-0.3-1.4-0.3c-0.7,0-1,0.3-1,0.7c0,0.4,0.4,0.6,1.2,0.9
			c1.2,0.4,1.7,1.1,1.7,2c0,1.1-0.9,2.1-2.7,2.1c-0.8,0-1.5-0.2-1.9-0.4L34.7,209.3z"/>
		<path class="st3" d="M44.6,209.3c0,0.6,0,1.2,0,1.6h-1.3l-0.1-0.7h0c-0.2,0.3-0.6,0.8-1.5,0.8c-1,0-1.7-0.6-1.7-2.1V206h1.5v2.6
			c0,0.7,0.2,1.1,0.8,1.1c0.4,0,0.7-0.3,0.8-0.5c0-0.1,0-0.2,0-0.3V206h1.5V209.3z"/>
		<path class="st3" d="M45.9,207.6c0-0.6,0-1.2,0-1.6h1.3l0.1,0.7h0c0.4-0.5,0.9-0.8,1.6-0.8c1.1,0,2,0.9,2,2.5
			c0,1.8-1.1,2.6-2.2,2.6c-0.6,0-1-0.2-1.3-0.6h0v2.4h-1.5V207.6z M47.4,208.7c0,0.1,0,0.2,0,0.3c0.1,0.4,0.4,0.7,0.9,0.7
			c0.7,0,1-0.5,1-1.4c0-0.8-0.3-1.4-1-1.4c-0.4,0-0.8,0.3-0.9,0.8c0,0.1,0,0.2,0,0.3V208.7z"/>
		<path class="st3" d="M51.8,207.6c0-0.6,0-1.2,0-1.6h1.3l0.1,0.7h0c0.4-0.5,0.9-0.8,1.6-0.8c1.1,0,2,0.9,2,2.5
			c0,1.8-1.1,2.6-2.2,2.6c-0.6,0-1-0.2-1.3-0.6h0v2.4h-1.5V207.6z M53.4,208.7c0,0.1,0,0.2,0,0.3c0.1,0.4,0.4,0.7,0.9,0.7
			c0.7,0,1-0.5,1-1.4c0-0.8-0.3-1.4-1-1.4c-0.4,0-0.8,0.3-0.9,0.8c0,0.1,0,0.2,0,0.3V208.7z"/>
		<path class="st3" d="M62.7,208.3c0,1.8-1.3,2.6-2.6,2.6c-1.4,0-2.5-0.9-2.5-2.5s1-2.6,2.6-2.6C61.7,205.9,62.7,206.9,62.7,208.3z
			 M59.1,208.4c0,0.8,0.3,1.5,1,1.5c0.6,0,1-0.6,1-1.5c0-0.7-0.3-1.5-1-1.5C59.4,206.9,59.1,207.7,59.1,208.4z"/>
		<path class="st3" d="M63.6,207.6c0-0.7,0-1.2,0-1.6h1.3l0,0.9h0c0.2-0.7,0.8-1,1.3-1c0.1,0,0.2,0,0.3,0v1.4c-0.1,0-0.2,0-0.4,0
			c-0.6,0-0.9,0.3-1,0.8c0,0.1,0,0.2,0,0.3v2.5h-1.5V207.6z"/>
		<path class="st3" d="M69.3,204.6v1.4h1.1v1.1h-1.1v1.8c0,0.6,0.1,0.9,0.6,0.9c0.2,0,0.3,0,0.5,0l0,1.1c-0.2,0.1-0.6,0.1-1,0.1
			c-0.5,0-0.9-0.2-1.1-0.4c-0.3-0.3-0.4-0.8-0.4-1.4v-2h-0.6V206h0.6v-1.1L69.3,204.6z"/>
		<path class="st3" d="M71.3,209.5c0.3,0.2,0.9,0.4,1.3,0.4c0.5,0,0.6-0.2,0.6-0.4c0-0.2-0.2-0.4-0.7-0.6c-1-0.3-1.4-0.9-1.4-1.5
			c0-0.9,0.8-1.6,2-1.6c0.6,0,1.1,0.1,1.4,0.3l-0.3,1c-0.2-0.1-0.6-0.3-1.1-0.3c-0.4,0-0.6,0.2-0.6,0.4c0,0.2,0.2,0.3,0.8,0.6
			c0.9,0.3,1.3,0.8,1.3,1.5c0,0.9-0.7,1.6-2.1,1.6c-0.6,0-1.2-0.1-1.6-0.3L71.3,209.5z"/>
		<path class="st3" d="M31.2,214.2c0.4-0.1,1.2-0.1,2-0.1c0.9,0,1.5,0.1,2,0.4c0.5,0.2,0.8,0.7,0.8,1.3c0,0.6-0.3,1.2-1.1,1.4v0
			c0.8,0.2,1.3,0.8,1.3,1.7c0,0.6-0.3,1.1-0.7,1.4c-0.5,0.4-1.3,0.6-2.6,0.6c-0.7,0-1.3,0-1.6-0.1V214.2z M32.7,216.8h0.5
			c0.8,0,1.2-0.3,1.2-0.8c0-0.5-0.4-0.8-1.1-0.8c-0.3,0-0.5,0-0.6,0V216.8z M32.7,219.8c0.1,0,0.3,0,0.6,0c0.7,0,1.3-0.3,1.3-1
			c0-0.7-0.6-0.9-1.4-0.9h-0.5V219.8z"/>
		<path class="st3" d="M38.4,218.9c0,0.6,0.7,0.9,1.4,0.9c0.5,0,0.9-0.1,1.3-0.2l0.2,1c-0.5,0.2-1.1,0.3-1.8,0.3
			c-1.7,0-2.6-1-2.6-2.5c0-1.2,0.8-2.6,2.5-2.6c1.6,0,2.2,1.2,2.2,2.4c0,0.3,0,0.5,0,0.6H38.4z M40.2,217.8c0-0.4-0.2-1-0.9-1
			c-0.6,0-0.9,0.6-0.9,1H40.2z"/>
		<path class="st3" d="M42.6,213.8h1.5v2.8h0c0.2-0.2,0.4-0.4,0.6-0.5c0.2-0.1,0.5-0.2,0.8-0.2c1,0,1.7,0.7,1.7,2.1v2.9h-1.5v-2.7
			c0-0.6-0.2-1.1-0.8-1.1c-0.4,0-0.6,0.3-0.8,0.5c0,0.1,0,0.2,0,0.3v2.9h-1.5V213.8z"/>
		<path class="st3" d="M51.2,220.8l-0.1-0.5h0c-0.3,0.4-0.8,0.6-1.4,0.6c-1,0-1.6-0.7-1.6-1.5c0-1.3,1.1-1.9,2.9-1.9v-0.1
			c0-0.3-0.1-0.6-0.9-0.6c-0.5,0-1,0.2-1.3,0.4l-0.3-1c0.3-0.2,1-0.4,1.9-0.4c1.6,0,2.1,1,2.1,2.1v1.7c0,0.5,0,0.9,0.1,1.2H51.2z
			 M51,218.5c-0.8,0-1.4,0.2-1.4,0.8c0,0.4,0.3,0.6,0.6,0.6c0.4,0,0.7-0.2,0.8-0.6c0-0.1,0-0.2,0-0.3V218.5z"/>
		<path class="st3" d="M54.7,216l0.7,2.3c0.1,0.4,0.2,0.8,0.3,1.2h0c0.1-0.4,0.2-0.8,0.3-1.2l0.6-2.3h1.6l-1.8,4.9h-1.5l-1.8-4.9
			H54.7z"/>
		<path class="st3" d="M60.4,214.6c0,0.4-0.3,0.8-0.8,0.8c-0.5,0-0.8-0.3-0.8-0.8c0-0.4,0.3-0.8,0.8-0.8
			C60.1,213.8,60.4,214.2,60.4,214.6z M58.9,220.8V216h1.5v4.9H58.9z"/>
		<path class="st3" d="M66.4,218.3c0,1.8-1.3,2.6-2.6,2.6c-1.4,0-2.5-0.9-2.5-2.5s1-2.6,2.6-2.6C65.4,215.9,66.4,216.9,66.4,218.3z
			 M62.9,218.4c0,0.8,0.3,1.5,1,1.5c0.6,0,1-0.6,1-1.5c0-0.7-0.3-1.5-1-1.5C63.2,216.9,62.9,217.7,62.9,218.4z"/>
		<path class="st3" d="M67.4,217.6c0-0.7,0-1.2,0-1.6h1.3l0,0.9h0c0.2-0.7,0.8-1,1.3-1c0.1,0,0.2,0,0.3,0v1.4c-0.1,0-0.2,0-0.4,0
			c-0.6,0-0.9,0.3-1,0.8c0,0.1,0,0.2,0,0.3v2.5h-1.5V217.6z"/>
		<path class="st3" d="M73.9,220.8l-0.1-0.5h0c-0.3,0.4-0.8,0.6-1.4,0.6c-1,0-1.6-0.7-1.6-1.5c0-1.3,1.1-1.9,2.9-1.9v-0.1
			c0-0.3-0.1-0.6-0.9-0.6c-0.5,0-1,0.2-1.3,0.4l-0.3-1c0.3-0.2,1-0.4,1.9-0.4c1.6,0,2.1,1,2.1,2.1v1.7c0,0.5,0,0.9,0.1,1.2H73.9z
			 M73.7,218.5c-0.8,0-1.4,0.2-1.4,0.8c0,0.4,0.3,0.6,0.6,0.6c0.4,0,0.7-0.2,0.8-0.6c0-0.1,0-0.2,0-0.3V218.5z"/>
		<path class="st3" d="M76.4,213.8h1.5v7.1h-1.5V213.8z"/>
		<path class="st3" d="M31.9,228.3c0-0.8-0.1-1.8-0.1-2.8h0c-0.2,0.9-0.5,1.8-0.8,2.6l-0.8,2.6h-1.2l-0.7-2.6
			c-0.2-0.8-0.4-1.7-0.6-2.6h0c0,0.9-0.1,1.9-0.1,2.8l-0.1,2.6h-1.4l0.4-6.7h2l0.7,2.2c0.2,0.8,0.4,1.6,0.6,2.4h0
			c0.2-0.8,0.4-1.7,0.6-2.4l0.7-2.2h2l0.4,6.7H32L31.9,228.3z"/>
		<path class="st3" d="M37.5,230.8l-0.1-0.5h0c-0.3,0.4-0.8,0.6-1.4,0.6c-1,0-1.6-0.7-1.6-1.5c0-1.3,1.1-1.9,2.9-1.9v-0.1
			c0-0.3-0.1-0.6-0.9-0.6c-0.5,0-1,0.2-1.3,0.4l-0.3-1c0.3-0.2,1-0.4,1.9-0.4c1.6,0,2.1,1,2.1,2.1v1.7c0,0.5,0,0.9,0.1,1.2H37.5z
			 M37.3,228.5c-0.8,0-1.4,0.2-1.4,0.8c0,0.4,0.3,0.6,0.6,0.6c0.4,0,0.7-0.2,0.8-0.6c0-0.1,0-0.2,0-0.3V228.5z"/>
		<path class="st3" d="M41.5,224.6c0,0.4-0.3,0.8-0.8,0.8c-0.5,0-0.8-0.3-0.8-0.8c0-0.4,0.3-0.8,0.8-0.8
			C41.2,223.8,41.5,224.2,41.5,224.6z M40,230.8V226h1.5v4.9H40z"/>
		<path class="st3" d="M42.7,227.5c0-0.6,0-1.1,0-1.6H44l0.1,0.7h0c0.2-0.3,0.7-0.8,1.5-0.8c1,0,1.7,0.7,1.7,2.1v2.9h-1.5v-2.7
			c0-0.6-0.2-1.1-0.8-1.1c-0.4,0-0.7,0.3-0.8,0.6c0,0.1-0.1,0.2-0.1,0.4v2.8h-1.5V227.5z"/>
		<path class="st3" d="M50.2,224.6v1.4h1.1v1.1h-1.1v1.8c0,0.6,0.1,0.9,0.6,0.9c0.2,0,0.3,0,0.5,0l0,1.1c-0.2,0.1-0.6,0.1-1,0.1
			c-0.5,0-0.9-0.2-1.1-0.4c-0.3-0.3-0.4-0.8-0.4-1.4v-2h-0.6V226h0.6v-1.1L50.2,224.6z"/>
		<path class="st3" d="M53.3,228.9c0,0.6,0.7,0.9,1.4,0.9c0.5,0,0.9-0.1,1.3-0.2l0.2,1c-0.5,0.2-1.1,0.3-1.8,0.3
			c-1.7,0-2.6-1-2.6-2.5c0-1.2,0.8-2.6,2.5-2.6c1.6,0,2.2,1.2,2.2,2.4c0,0.3,0,0.5,0,0.6H53.3z M55.1,227.8c0-0.4-0.2-1-0.9-1
			c-0.6,0-0.9,0.6-0.9,1H55.1z"/>
		<path class="st3" d="M57.4,227.5c0-0.6,0-1.1,0-1.6h1.3l0.1,0.7h0c0.2-0.3,0.7-0.8,1.5-0.8c1,0,1.7,0.7,1.7,2.1v2.9h-1.5v-2.7
			c0-0.6-0.2-1.1-0.8-1.1c-0.4,0-0.7,0.3-0.8,0.6c0,0.1-0.1,0.2-0.1,0.4v2.8h-1.5V227.5z"/>
		<path class="st3" d="M66,230.8l-0.1-0.5h0c-0.3,0.4-0.8,0.6-1.4,0.6c-1,0-1.6-0.7-1.6-1.5c0-1.3,1.1-1.9,2.9-1.9v-0.1
			c0-0.3-0.1-0.6-0.9-0.6c-0.5,0-1,0.2-1.3,0.4l-0.3-1c0.3-0.2,1-0.4,1.9-0.4c1.6,0,2.1,1,2.1,2.1v1.7c0,0.5,0,0.9,0.1,1.2H66z
			 M65.9,228.5c-0.8,0-1.4,0.2-1.4,0.8c0,0.4,0.3,0.6,0.6,0.6c0.4,0,0.7-0.2,0.8-0.6c0-0.1,0-0.2,0-0.3V228.5z"/>
		<path class="st3" d="M68.5,227.5c0-0.6,0-1.1,0-1.6h1.3l0.1,0.7h0c0.2-0.3,0.7-0.8,1.5-0.8c1,0,1.7,0.7,1.7,2.1v2.9h-1.5v-2.7
			c0-0.6-0.2-1.1-0.8-1.1c-0.4,0-0.7,0.3-0.8,0.6c0,0.1-0.1,0.2-0.1,0.4v2.8h-1.5V227.5z"/>
		<path class="st3" d="M78.1,230.7c-0.3,0.1-0.8,0.2-1.4,0.2c-1.6,0-2.6-1-2.6-2.5c0-1.4,1-2.6,2.8-2.6c0.4,0,0.8,0.1,1.2,0.2
			l-0.2,1.1c-0.2-0.1-0.5-0.1-0.8-0.1c-0.8,0-1.3,0.6-1.3,1.4c0,0.9,0.6,1.4,1.3,1.4c0.4,0,0.6-0.1,0.9-0.1L78.1,230.7z"/>
		<path class="st3" d="M80,228.9c0,0.6,0.7,0.9,1.4,0.9c0.5,0,0.9-0.1,1.3-0.2l0.2,1c-0.5,0.2-1.1,0.3-1.8,0.3c-1.7,0-2.6-1-2.6-2.5
			c0-1.2,0.8-2.6,2.5-2.6c1.6,0,2.2,1.2,2.2,2.4c0,0.3,0,0.5,0,0.6H80z M81.8,227.8c0-0.4-0.2-1-0.9-1c-0.6,0-0.9,0.6-0.9,1H81.8z"
			/>
	</g>
	<g>
		<path class="st3" d="M226.3,252.3v6.7h-1.5v-6.7H226.3z"/>
		<path class="st3" d="M227.6,255.7c0-0.6,0-1.1,0-1.6h1.3l0.1,0.7h0c0.2-0.3,0.6-0.8,1.5-0.8c0.6,0,1.1,0.3,1.3,0.8h0
			c0.2-0.2,0.4-0.5,0.6-0.6c0.3-0.2,0.6-0.2,0.9-0.2c0.9,0,1.6,0.7,1.6,2.1v2.9h-1.5v-2.7c0-0.7-0.2-1.1-0.7-1.1
			c-0.3,0-0.6,0.2-0.7,0.5c0,0.1-0.1,0.3-0.1,0.4v2.9h-1.5v-2.7c0-0.6-0.2-1-0.7-1c-0.4,0-0.6,0.3-0.7,0.5c0,0.1-0.1,0.3-0.1,0.4
			v2.8h-1.5V255.7z"/>
		<path class="st3" d="M236.2,255.8c0-0.6,0-1.2,0-1.6h1.3l0.1,0.7h0c0.4-0.5,0.9-0.8,1.6-0.8c1.1,0,2,0.9,2,2.5
			c0,1.8-1.1,2.6-2.2,2.6c-0.6,0-1-0.2-1.3-0.6h0v2.4h-1.5V255.8z M237.7,257c0,0.1,0,0.2,0,0.3c0.1,0.4,0.4,0.7,0.9,0.7
			c0.7,0,1-0.5,1-1.4c0-0.8-0.3-1.4-1-1.4c-0.4,0-0.8,0.3-0.9,0.8c0,0.1,0,0.2,0,0.3V257z"/>
		<path class="st3" d="M242.2,255.8c0-0.7,0-1.2,0-1.6h1.3l0,0.9h0c0.2-0.7,0.8-1,1.3-1c0.1,0,0.2,0,0.3,0v1.4c-0.1,0-0.2,0-0.4,0
			c-0.6,0-0.9,0.3-1,0.8c0,0.1,0,0.2,0,0.3v2.5h-1.5V255.8z"/>
		<path class="st3" d="M250.7,256.6c0,1.8-1.3,2.6-2.6,2.6c-1.4,0-2.5-0.9-2.5-2.5s1-2.6,2.6-2.6
			C249.7,254.1,250.7,255.1,250.7,256.6z M247.2,256.6c0,0.8,0.3,1.5,1,1.5c0.6,0,1-0.6,1-1.5c0-0.7-0.3-1.5-1-1.5
			C247.5,255.1,247.2,255.9,247.2,256.6z"/>
		<path class="st3" d="M252.7,254.2l0.7,2.3c0.1,0.4,0.2,0.8,0.3,1.2h0c0.1-0.4,0.2-0.8,0.3-1.2l0.6-2.3h1.6l-1.8,4.9h-1.5l-1.8-4.9
			H252.7z"/>
		<path class="st3" d="M257.9,257.1c0,0.6,0.7,0.9,1.4,0.9c0.5,0,0.9-0.1,1.3-0.2l0.2,1c-0.5,0.2-1.1,0.3-1.8,0.3
			c-1.7,0-2.6-1-2.6-2.5c0-1.2,0.8-2.6,2.5-2.6c1.6,0,2.2,1.2,2.2,2.4c0,0.3,0,0.5,0,0.6H257.9z M259.7,256.1c0-0.4-0.2-1-0.9-1
			c-0.6,0-0.9,0.6-0.9,1H259.7z"/>
		<path class="st3" d="M262,257.7c0.3,0.2,0.9,0.4,1.3,0.4c0.5,0,0.6-0.2,0.6-0.4s-0.2-0.4-0.7-0.6c-1-0.3-1.4-0.9-1.4-1.5
			c0-0.9,0.8-1.6,2-1.6c0.6,0,1.1,0.1,1.4,0.3l-0.3,1c-0.2-0.1-0.6-0.3-1.1-0.3c-0.4,0-0.6,0.1-0.6,0.4c0,0.2,0.2,0.3,0.8,0.6
			c0.9,0.3,1.3,0.8,1.3,1.5c0,0.9-0.7,1.6-2.1,1.6c-0.6,0-1.2-0.1-1.6-0.3L262,257.7z"/>
		<path class="st3" d="M226.5,263.4c0.5-0.1,1.1-0.1,2.1-0.1c0.9,0,1.6,0.2,2.1,0.5c0.4,0.3,0.7,0.9,0.7,1.6c0,0.7-0.2,1.2-0.6,1.6
			c-0.5,0.5-1.3,0.7-2.2,0.7c-0.2,0-0.4,0-0.5,0v2.4h-1.5V263.4z M228,266.5c0.1,0,0.3,0,0.5,0c0.8,0,1.3-0.4,1.3-1.1
			c0-0.6-0.4-1-1.2-1c-0.3,0-0.5,0-0.6,0.1V266.5z"/>
		<path class="st3" d="M232.2,266.8c0-0.7,0-1.2,0-1.6h1.3l0,0.9h0c0.2-0.7,0.8-1,1.3-1c0.1,0,0.2,0,0.3,0v1.4c-0.1,0-0.2,0-0.4,0
			c-0.6,0-0.9,0.3-1,0.8c0,0.1,0,0.2,0,0.3v2.5h-1.5V266.8z"/>
		<path class="st3" d="M240.7,267.6c0,1.8-1.3,2.6-2.6,2.6c-1.4,0-2.5-0.9-2.5-2.5s1-2.6,2.6-2.6
			C239.7,265.1,240.7,266.1,240.7,267.6z M237.2,267.6c0,0.8,0.3,1.5,1,1.5c0.6,0,1-0.6,1-1.5c0-0.7-0.3-1.5-1-1.5
			C237.4,266.1,237.2,266.9,237.2,267.6z"/>
		<path class="st3" d="M242.7,265.2l0.7,2.3c0.1,0.4,0.2,0.8,0.3,1.2h0c0.1-0.4,0.2-0.8,0.3-1.2l0.6-2.3h1.6l-1.8,4.9h-1.5l-1.8-4.9
			H242.7z"/>
		<path class="st3" d="M248.4,263.8c0,0.4-0.3,0.8-0.8,0.8c-0.5,0-0.8-0.3-0.8-0.8c0-0.4,0.3-0.8,0.8-0.8
			C248.1,263,248.4,263.4,248.4,263.8z M246.9,270v-4.9h1.5v4.9H246.9z"/>
		<path class="st3" d="M254.3,263v5.6c0,0.5,0,1.1,0,1.5H253l-0.1-0.7h0c-0.3,0.5-0.9,0.8-1.5,0.8c-1.2,0-2.1-1-2.1-2.5
			c0-1.6,1-2.6,2.2-2.6c0.6,0,1.1,0.2,1.3,0.5h0V263H254.3z M252.8,267.2c0-0.1,0-0.2,0-0.3c-0.1-0.4-0.4-0.8-0.9-0.8
			c-0.7,0-1,0.6-1,1.4c0,0.8,0.4,1.3,1,1.3c0.4,0,0.8-0.3,0.9-0.7c0-0.1,0-0.2,0-0.3V267.2z"/>
		<path class="st3" d="M256.7,268.1c0,0.6,0.7,0.9,1.4,0.9c0.5,0,0.9-0.1,1.3-0.2l0.2,1c-0.5,0.2-1.1,0.3-1.8,0.3
			c-1.7,0-2.6-1-2.6-2.5c0-1.2,0.8-2.6,2.5-2.6c1.6,0,2.2,1.2,2.2,2.4c0,0.3,0,0.5,0,0.6H256.7z M258.5,267.1c0-0.4-0.2-1-0.9-1
			c-0.6,0-0.9,0.6-0.9,1H258.5z"/>
		<path class="st3" d="M260.8,266.8c0-0.7,0-1.2,0-1.6h1.3l0,0.9h0c0.2-0.7,0.8-1,1.3-1c0.1,0,0.2,0,0.3,0v1.4c-0.1,0-0.2,0-0.4,0
			c-0.6,0-0.9,0.3-1,0.8c0,0.1,0,0.2,0,0.3v2.5h-1.5V266.8z"/>
		<path class="st3" d="M225.6,274.4c0.4-0.1,1.2-0.1,2-0.1c0.9,0,1.5,0.1,2,0.4c0.5,0.2,0.8,0.7,0.8,1.3c0,0.6-0.3,1.2-1.1,1.4v0
			c0.8,0.2,1.3,0.8,1.3,1.7c0,0.6-0.3,1.1-0.7,1.4c-0.5,0.4-1.3,0.6-2.6,0.6c-0.7,0-1.3,0-1.6-0.1V274.4z M227.1,277h0.5
			c0.8,0,1.2-0.3,1.2-0.8c0-0.5-0.4-0.8-1.1-0.8c-0.3,0-0.5,0-0.6,0V277z M227.1,280c0.1,0,0.3,0,0.6,0c0.7,0,1.3-0.3,1.3-1
			c0-0.7-0.6-1-1.4-1h-0.5V280z"/>
		<path class="st3" d="M232.8,279.1c0,0.6,0.7,0.9,1.4,0.9c0.5,0,0.9-0.1,1.3-0.2l0.2,1c-0.5,0.2-1.1,0.3-1.8,0.3
			c-1.7,0-2.6-1-2.6-2.5c0-1.2,0.8-2.6,2.5-2.6c1.6,0,2.2,1.2,2.2,2.4c0,0.3,0,0.5,0,0.6H232.8z M234.6,278.1c0-0.4-0.2-1-0.9-1
			c-0.6,0-0.9,0.6-0.9,1H234.6z"/>
		<path class="st3" d="M236.9,274h1.5v2.8h0c0.2-0.2,0.4-0.4,0.6-0.5c0.2-0.1,0.5-0.2,0.8-0.2c1,0,1.7,0.7,1.7,2.1v2.9H240v-2.7
			c0-0.6-0.2-1.1-0.8-1.1c-0.4,0-0.6,0.3-0.8,0.5c0,0.1,0,0.2,0,0.3v2.9h-1.5V274z"/>
		<path class="st3" d="M245.6,281l-0.1-0.5h0c-0.3,0.4-0.8,0.6-1.4,0.6c-1,0-1.6-0.7-1.6-1.5c0-1.3,1.1-1.9,2.9-1.9v-0.1
			c0-0.3-0.1-0.6-0.9-0.6c-0.5,0-1,0.2-1.3,0.4l-0.3-1c0.3-0.2,1-0.4,1.9-0.4c1.6,0,2.1,1,2.1,2.1v1.7c0,0.5,0,0.9,0.1,1.2H245.6z
			 M245.4,278.7c-0.8,0-1.4,0.2-1.4,0.8c0,0.4,0.3,0.6,0.6,0.6c0.4,0,0.7-0.2,0.8-0.6c0-0.1,0-0.2,0-0.3V278.7z"/>
		<path class="st3" d="M249.1,276.2l0.7,2.3c0.1,0.4,0.2,0.8,0.3,1.2h0c0.1-0.4,0.2-0.8,0.3-1.2l0.6-2.3h1.6l-1.8,4.9h-1.5l-1.8-4.9
			H249.1z"/>
		<path class="st3" d="M254.8,274.8c0,0.4-0.3,0.8-0.8,0.8c-0.5,0-0.8-0.3-0.8-0.8c0-0.4,0.3-0.8,0.8-0.8
			C254.5,274,254.8,274.4,254.8,274.8z M253.2,281v-4.9h1.5v4.9H253.2z"/>
		<path class="st3" d="M260.8,278.6c0,1.8-1.3,2.6-2.6,2.6c-1.4,0-2.5-0.9-2.5-2.5s1-2.6,2.6-2.6
			C259.8,276.1,260.8,277.1,260.8,278.6z M257.3,278.6c0,0.8,0.3,1.5,1,1.5c0.6,0,1-0.6,1-1.5c0-0.7-0.3-1.5-1-1.5
			C257.5,277.1,257.3,277.9,257.3,278.6z"/>
		<path class="st3" d="M261.8,277.8c0-0.7,0-1.2,0-1.6h1.3l0,0.9h0c0.2-0.7,0.8-1,1.3-1c0.1,0,0.2,0,0.3,0v1.4c-0.1,0-0.2,0-0.4,0
			c-0.6,0-0.9,0.3-1,0.8c0,0.1,0,0.2,0,0.3v2.5h-1.5V277.8z"/>
	</g>
	<g>
		<path class="st3" d="M177.4,287.4c0.4-0.1,1.2-0.1,2-0.1c0.9,0,1.5,0.1,2,0.4c0.5,0.2,0.8,0.7,0.8,1.3c0,0.6-0.3,1.2-1.1,1.4v0
			c0.8,0.2,1.3,0.8,1.3,1.7c0,0.6-0.3,1.1-0.7,1.4c-0.5,0.4-1.3,0.6-2.6,0.6c-0.7,0-1.3,0-1.6-0.1V287.4z M178.9,290h0.5
			c0.8,0,1.2-0.3,1.2-0.8c0-0.5-0.4-0.8-1.1-0.8c-0.3,0-0.5,0-0.6,0V290z M178.9,293c0.1,0,0.3,0,0.6,0c0.7,0,1.3-0.3,1.3-1
			c0-0.7-0.6-1-1.4-1h-0.5V293z"/>
		<path class="st3" d="M188,292.5c0,0.6,0,1.2,0,1.6h-1.3l-0.1-0.7h0c-0.2,0.3-0.6,0.8-1.5,0.8c-1,0-1.7-0.6-1.7-2.1v-2.9h1.5v2.6
			c0,0.7,0.2,1.1,0.8,1.1c0.4,0,0.7-0.3,0.8-0.5c0-0.1,0-0.2,0-0.3v-2.9h1.5V292.5z"/>
		<path class="st3" d="M190.7,287.8c0,0.4-0.3,0.8-0.8,0.8c-0.5,0-0.8-0.3-0.8-0.8c0-0.4,0.3-0.8,0.8-0.8
			C190.4,287,190.7,287.3,190.7,287.8z M189.2,294v-4.9h1.5v4.9H189.2z"/>
		<path class="st3" d="M191.9,286.9h1.5v7.1h-1.5V286.9z"/>
		<path class="st3" d="M199.4,286.9v5.6c0,0.5,0,1.1,0,1.5h-1.3l-0.1-0.7h0c-0.3,0.5-0.9,0.8-1.5,0.8c-1.2,0-2.1-1-2.1-2.5
			c0-1.6,1-2.6,2.2-2.6c0.6,0,1.1,0.2,1.3,0.5h0v-2.6H199.4z M197.9,291.2c0-0.1,0-0.2,0-0.3c-0.1-0.4-0.4-0.8-0.9-0.8
			c-0.7,0-1,0.6-1,1.4c0,0.8,0.4,1.3,1,1.3c0.4,0,0.8-0.3,0.9-0.7c0-0.1,0-0.2,0-0.3V291.2z"/>
		<path class="st3" d="M200.6,292.7c0.3,0.2,0.9,0.4,1.3,0.4c0.5,0,0.6-0.2,0.6-0.4s-0.2-0.4-0.7-0.6c-1-0.3-1.4-0.9-1.4-1.5
			c0-0.9,0.8-1.6,2-1.6c0.6,0,1.1,0.1,1.4,0.3l-0.3,1c-0.2-0.1-0.6-0.3-1.1-0.3c-0.4,0-0.6,0.1-0.6,0.4c0,0.2,0.2,0.3,0.8,0.6
			c0.9,0.3,1.3,0.8,1.3,1.5c0,0.9-0.7,1.6-2.1,1.6c-0.6,0-1.2-0.1-1.6-0.3L200.6,292.7z"/>
		<path class="st3" d="M181.2,299.6h-1.8v-1.3h5.2v1.3h-1.8v5.5h-1.5V299.6z"/>
		<path class="st3" d="M184.8,301.8c0-0.7,0-1.2,0-1.6h1.3l0,0.9h0c0.2-0.7,0.8-1,1.3-1c0.1,0,0.2,0,0.3,0v1.4c-0.1,0-0.2,0-0.4,0
			c-0.6,0-0.9,0.3-1,0.8c0,0.1,0,0.2,0,0.3v2.5h-1.5V301.8z"/>
		<path class="st3" d="M193.2,303.5c0,0.6,0,1.2,0,1.6h-1.3l-0.1-0.7h0c-0.2,0.3-0.6,0.8-1.5,0.8c-1,0-1.7-0.6-1.7-2.1v-2.9h1.5v2.6
			c0,0.7,0.2,1.1,0.8,1.1c0.4,0,0.7-0.3,0.8-0.5c0-0.1,0-0.2,0-0.3v-2.9h1.5V303.5z"/>
		<path class="st3" d="M194.4,303.7c0.3,0.2,0.9,0.4,1.3,0.4c0.5,0,0.6-0.2,0.6-0.4s-0.2-0.4-0.7-0.6c-1-0.3-1.4-0.9-1.4-1.5
			c0-0.9,0.8-1.6,2-1.6c0.6,0,1.1,0.1,1.4,0.3l-0.3,1c-0.2-0.1-0.6-0.3-1.1-0.3c-0.4,0-0.6,0.1-0.6,0.4c0,0.2,0.2,0.3,0.8,0.6
			c0.9,0.3,1.3,0.8,1.3,1.5c0,0.9-0.7,1.6-2.1,1.6c-0.6,0-1.2-0.1-1.6-0.3L194.4,303.7z"/>
		<path class="st3" d="M200.4,298.7v1.4h1.1v1.1h-1.1v1.8c0,0.6,0.1,0.9,0.6,0.9c0.2,0,0.3,0,0.5,0l0,1.1c-0.2,0.1-0.6,0.1-1,0.1
			c-0.5,0-0.9-0.2-1.1-0.4c-0.3-0.3-0.4-0.8-0.4-1.4v-2h-0.6v-1.1h0.6v-1.1L200.4,298.7z"/>
	</g>
	<g>
		<path class="st3" d="M176.2,35.7c-0.2,0.6-0.4,1.2-0.5,1.8c-0.2,1.2-0.6,1.6-1.9,1.6c-0.6,0-1.1,0-1.7-0.1c-0.7-0.1-0.9-0.4-0.8-1
			c0.1-0.8,0.3-1.5,0.4-2.3c0.5-1.9,0.9-3.8,1.5-5.7c0.7-2.1,2.2-3.2,4.4-3.5c2-0.2,4.1-0.2,6.1,0c2.4,0.2,4.9,0.5,7.3,0.7
			c1.8,0.1,3.7,0,5.5-0.3c0.2,0,0.5,0,0.7,0c1,0,1.6,0.5,1.8,1.4c0.2,1-0.2,1.8-1.2,2.1c-0.9,0.3-1.9,0.5-2.8,0.6
			c-2.3,0.3-4.5,0.6-6.8,0.9c-1.5,0.2-1.9,0.6-2.1,2.2c-0.1,1.2-0.2,2.4-0.3,3.7c-0.1,1.1-0.5,1.4-1.6,1.4c-1.5,0-3,0-4.6-0.1
			c-0.6,0-1.1,0.1-1.7,0.1c-1.3,0-1.8-0.5-1.8-1.8c0-0.5,0-1.1,0-1.6C176.4,35.7,176.3,35.7,176.2,35.7z"/>
		<path class="st3" d="M196.8,36.5c0,0.3-0.1,0.7-0.1,1c0,1.1-0.5,1.5-1.6,1.5c-1,0-2.1,0-3.1,0c-1.2,0-2.5,0-3.7,0
			c-0.9,0-1.3-0.4-1.2-1.3c0.1-1,0.3-2,0.4-3c0.2-1.1,0.9-1.6,1.9-1.7c1.3-0.2,2.6-0.2,3.8-0.5c1.8-0.3,3.7-0.8,5.5-1.1
			c0.3-0.1,0.6-0.1,0.9-0.2c0.3-0.1,0.5,0,0.6,0.4c0.4,1.7,0.7,3.4,1.1,5.1c0.1,0.5,0.2,0.9,0.2,1.4c0.1,0.5-0.2,0.7-0.6,0.9
			c-1.7,0.6-3,0-3.7-1.6c-0.1-0.3-0.3-0.6-0.4-1C196.9,36.5,196.8,36.5,196.8,36.5z"/>
		<path class="st3" d="M181,25.6c-2.6,0-4.4-1.9-4.3-4.6c0-2.5,1.9-4.3,4.6-4.3c2.4,0,4.3,2,4.3,4.5C185.5,23.8,183.6,25.6,181,25.6
			z"/>
		<path class="st3" d="M187.7,22.6c0-2.3,1.9-4.2,4.3-4.2c2.3,0,4.2,1.9,4.2,4.3c0,2.4-1.8,4.2-4.2,4.2
			C189.6,26.9,187.7,25,187.7,22.6z"/>
	</g>
	<path class="st3" d="M124.6,54.3c-8.1,0-16.1,0-24.2,0c-0.8-0.2-1.6-0.6-2.1-1.3c-0.4-0.5-0.7-1.1-0.7-1.8c0-4.8,0-9.5,0-14.3
		c0-0.5,0.1-0.9,0.4-1.4c0.4-0.8,1.1-1.4,2-1.7c0.1,0,0.2-0.1,0.2-0.2c0-0.6,0.2-1,0.6-1.4c0.4-0.5,1-0.6,1.6-0.6
		c0.4,0,0.8,0.1,1.2,0c1.5-0.5,3.1-0.9,4.6-1.3c1.3-0.4,2.7-0.7,4-1.1c1.7-0.5,3.5-0.9,5.2-1.4c1.8-0.5,3.5-1,5.3-1.5
		c0.2,0,0.2-0.1,0.2-0.2c0.2-1.2,1.2-1.7,2.2-1.4c0.8,0.2,1.2,1,1.1,1.8c-0.1,1-1.1,1.6-2.1,1.4c-0.4-0.1-0.8-0.4-1-0.7
		c-6.3,1.9-12.6,3.8-18.9,5.7c0.1,0.3,0.1,0.6,0.2,0.8c0.1,0,0.3,0,0.4,0c6.2,0,12.4,0,18.6,0c0.4,0,0.8,0,1.2,0.1
		c1,0.1,1.8,0.7,2.3,1.5c0.2,0.4,0.3,0.8,0.5,1.2c0,5,0,10,0,15c0,0,0,0.1-0.1,0.1c-0.2,0.9-0.7,1.7-1.5,2.1
		C125.4,54,125,54.1,124.6,54.3z M101.1,40.5c4.9,0,9.9,0,14.8,0c0-1.5,0-3,0-4.5c-4.9,0-9.8,0-14.8,0
		C101.1,37.5,101.1,39,101.1,40.5z M123.8,36c-2.3,0-4.5,0-6.8,0c0,1.5,0,3,0,4.5c2.3,0,4.5,0,6.8,0C123.8,39,123.8,37.5,123.8,36z
		 M116.9,47.4c0,2,1.6,3.6,3.6,3.6c2,0,3.6-1.6,3.6-3.6c0-2-1.5-3.6-3.5-3.6C118.5,43.8,116.9,45.4,116.9,47.4z M110.2,47.4
		c0,0.9,0,1.9,0,2.8c0,0.4,0.3,0.6,0.6,0.6c0.3,0,0.5-0.2,0.5-0.6c0-1.9,0-3.7,0-5.6c0-0.3-0.1-0.5-0.4-0.6
		c-0.4-0.1-0.7,0.2-0.7,0.6C110.2,45.6,110.2,46.5,110.2,47.4z M103.4,47.4c0,0.9,0,1.9,0,2.8c0,0.4,0.2,0.6,0.6,0.6
		c0.3,0,0.5-0.3,0.5-0.7c0-1.4,0-2.8,0-4.3c0-0.4,0-0.8,0-1.1c0-0.4-0.3-0.7-0.6-0.7c-0.3,0-0.5,0.3-0.5,0.7
		C103.4,45.6,103.4,46.5,103.4,47.4z M106.7,47.4c0-0.9,0-1.9,0-2.8c0-0.3-0.1-0.5-0.4-0.6c-0.3-0.1-0.7,0.1-0.7,0.6
		c0,1.8,0,3.6,0,5.4c0,0.2,0.1,0.4,0.2,0.5c0.1,0.2,0.4,0.2,0.6,0.1c0.2-0.1,0.3-0.3,0.3-0.6C106.7,49.3,106.7,48.4,106.7,47.4z
		 M113.6,47.4c0-0.9,0-1.9,0-2.8c0-0.4-0.4-0.7-0.7-0.6c-0.4,0.1-0.4,0.5-0.4,0.8c0,1.7,0,3.4,0,5.2c0,0,0,0.1,0,0.1
		c0.1,0.5,0.3,0.7,0.6,0.6c0.3,0,0.5-0.3,0.5-0.7C113.6,49.2,113.6,48.3,113.6,47.4z M102.1,47.4c0-0.9,0-1.9,0-2.8
		c0-0.3-0.2-0.6-0.5-0.6c-0.3,0-0.5,0.2-0.5,0.6c0,1.9,0,3.8,0,5.7c0,0.3,0.2,0.5,0.5,0.5c0.3,0,0.5-0.2,0.5-0.6
		C102.1,49.3,102.1,48.4,102.1,47.4z M108,47.4c0,0.9,0,1.9,0,2.8c0,0.3,0.2,0.6,0.5,0.6c0.3,0,0.5-0.2,0.5-0.5c0-1.9,0-3.8,0-5.6
		c0-0.4-0.2-0.6-0.5-0.6c-0.3,0-0.5,0.2-0.5,0.6C108,45.5,108,46.5,108,47.4z"/>
	<g>
		<g>
			<path class="st3" d="M277.1,176.9C277.1,176.9,277.1,176.9,277.1,176.9c0-4.9,0-5.1,0-10c0-0.2-0.1-0.3-0.3-0.4
				c-2.2-1-4.3-1.9-6.5-2.9c-1.3-0.6-2.5-1.1-3.8-1.7c-1.5-0.7-1.7-2.5-0.4-3.4c0.6-0.4,1.3-0.5,1.9-0.2c2.3,1,4.7,2.1,7,3.1
				c1.4,0.6,2.8,1.2,4.1,1.8c0.1,0.1,0.3,0.1,0.4,0.1c1,0,2.1,0,3.1,0c0.3,0,0.5-0.1,0.8-0.2c2.6-1.1,5.2-2.3,7.7-3.5
				c1-0.5,2.1-0.9,3.1-1.4c1.1-0.5,2.2,0,2.6,1c0.4,0.9,0,2.1-1,2.5c-2.7,1.2-5.5,2.5-8.2,3.7c-0.7,0.3-1.4,0.6-2.1,0.9
				c-0.2,0.1-0.3,0.3-0.3,0.5c0,2.6,0,5.2,0,7.9"/>
			<path class="st3" d="M281,174.2c0,0.9,0,1.9,0,2.8"/>
			<path class="st3" d="M281.5,176.4c0-0.7,0-1.5,0-2.2"/>
			<path class="st3" d="M281.2,162.6c-1.9,0-3.6-1.6-3.6-3.7c0.1-1.8,1.7-3.4,3.6-3.4c1.9,0,3.5,1.6,3.5,3.6
				C284.7,161,283.1,162.6,281.2,162.6z"/>
		</g>
		<g>
			<circle class="st3" cx="285.4" cy="189.5" r="1.9"/>
			
				<rect x="282.4" y="174.4" transform="matrix(0.9916 -0.1293 0.1293 0.9916 -21.1335 38.2989)" class="st3" width="4.2" height="15.1"/>
		</g>
		<g>
			<circle class="st3" cx="277.3" cy="189.5" r="1.9"/>
			
				<rect x="276.2" y="174.4" transform="matrix(-0.9916 -0.1293 0.1293 -0.9916 530.6384 398.3495)" class="st3" width="4.2" height="15.1"/>
		</g>
	</g>
	<g>
		<path class="st4" d="M196.7,272.5c0-0.4,0-0.7,0.1-1.1c0.3-1.5,1.8-2.6,3.3-2.2c0.5,0.1,0.9,0.4,1.3,0.8c0.2,0.2,0.3,0.5,0.6,0.7
			c0.1-0.2,0.1-0.3,0.2-0.4c0.4-0.7,0.9-1.3,1.7-1.5c0.8-0.3,1.5-0.2,2.2,0.3c0.2,0.1,0.3,0.2,0.5,0.4c0.1-0.1,0.2-0.2,0.3-0.3
			c0.5-0.6,1-1.2,1.5-1.8c0.2-0.2,0.2-0.3,0.1-0.6c-1.4-2.5-2.9-5.1-4.3-7.6c-0.5-0.9-1.1-1.9-1.6-2.8c-0.1-0.1-0.1-0.2-0.2-0.3
			c-1.4,1.1-3.2,1.3-5,1.6c0.1,0.2,0.2,0.3,0.3,0.4c0.6,1,1.3,1.9,1.9,2.9c0.5,0.7,0.8,1.5,0.7,2.4c0,0.7-0.5,1.2-1.1,1.3
			c-1.2,0.2-2.3-0.1-3.3-0.6c-1.2-0.6-2.2-1.5-3-2.6c-0.3-0.4-0.7-0.6-1.2-0.8c-0.8-0.3-1.4-0.2-2.1,0.2c-3.6,1.9-7,4-10.2,6.4
			c-1.3,1-2.6,2-3.8,3c-0.2,0.2-0.4,0.4-0.6,0.6c-0.6,0.6-0.6,1.6,0,2.3c0.2,0.3,0.5,0.5,0.9,0.5c0.3,0,0.6,0,1,0
			c0.1,0,0.3-0.1,0.4-0.1c2.1-1.2,4.2-2.5,6.2-3.7c0.4-0.3,0.9-0.5,1.4-0.7c0.2-0.1,0.4-0.2,0.6,0.1c0.1,0.2,0.1,0.4-0.2,0.6
			c-1.6,1-3.2,2-4.9,3c-0.7,0.4-1.4,0.9-2.1,1.3c-0.2,0.1-0.2,0.2-0.2,0.4c0,0.6,0,1.2,0.5,1.6c0.6,0.5,1.4,0.6,2.1,0.4
			c0.5-0.2,1-0.5,1.5-0.8c1.5-0.9,3-1.7,4.6-2.6c0.1-0.1,0.3-0.1,0.5-0.1c0.2,0.1,0.3,0.3,0.3,0.4c0,0.1-0.1,0.3-0.3,0.4
			c-1.2,0.7-2.5,1.5-3.7,2.2c-0.7,0.4-1.3,0.8-2,1.2c-0.4,0.3-0.4,0.4-0.3,0.9c0.3,1.1,1.1,1.5,2.1,1.3c0.6-0.1,1.1-0.3,1.6-0.6
			c1.2-0.5,2.4-1.1,3.5-1.7c0.2-0.1,0.3-0.1,0.5-0.2c0.3-0.1,0.5,0,0.6,0.3c0.1,0.2,0,0.4-0.2,0.6c-1,0.5-2.1,1-3.1,1.6
			c-0.4,0.2-0.9,0.4-1.3,0.7c-0.1,0-0.2,0.1-0.3,0.2c0.1,0.2,0.2,0.3,0.4,0.5c0.7,0.8,1.5,1.1,2.5,1.1c1.4-0.1,2.7-0.4,4-0.9
			c0.2-0.1,0.2-0.2,0.1-0.4c-0.1-0.2-0.3-0.4-0.4-0.6c-0.6-1.3,0-3,1.5-3.6c0.3-0.2,0.7-0.2,1.1-0.3c0.2,0,0.2-0.1,0.2-0.3
			C193.7,274,195.2,272.5,196.7,272.5C196.6,272.5,196.7,272.5,196.7,272.5z"/>
		<path class="st4" d="M199.1,262.9c0-0.3-0.1-0.7-0.3-1c-1.2-1.7-2.4-3.4-3.5-5.1c-0.4-0.6-1-0.8-1.7-0.9c-2.3-0.5-4.6-0.6-6.9-0.6
			c-1.7,0-3.4,0.4-5.1,0.8c-0.7,0.1-1.3,0.3-2,0.3c-0.7,0-1.3-0.1-2-0.2c-0.3-0.1-0.5,0-0.6,0.3c-1.9,3.4-3.8,6.8-5.8,10.2
			c-0.1,0.2-0.1,0.3,0.1,0.5c0.8,0.7,1.6,1.5,2.4,2.1c0.7,0.5,0.7,0.5,1.3,0c3.1-2.5,6.2-4.8,9.6-6.8c1.7-1,3.4-1.9,5.1-2.8
			c0.4-0.2,0.7-0.2,1.2-0.1c0.5,0.2,1,0.3,1.6,0.5c0.3,0.1,0.5,0.2,0.7,0.5c0.7,1.1,1.7,2,2.8,2.6c0.7,0.4,1.5,0.6,2.4,0.7
			C199,263.8,199.1,263.6,199.1,262.9z"/>
		<path class="st4" d="M202.1,277.6c1,0,1.8-0.7,1.9-1.7c0-0.3,0-0.6-0.2-0.8c-1.1-1.5-2.2-3-3.3-4.5c-0.4-0.6-0.9-0.7-1.6-0.4
			c-0.7,0.3-1.1,0.9-1.2,1.7c0,0.2,0,0.5,0.2,0.7c1.1,1.5,2.2,3,3.3,4.5C201.4,277.4,201.8,277.6,202.1,277.6z"/>
		<path class="st4" d="M198.6,280c1,0,1.8-0.8,1.8-1.7c0-0.3-0.1-0.6-0.2-0.9c-0.9-1.2-1.8-2.5-2.8-3.7c-0.1-0.1-0.3-0.2-0.5-0.3
			c-1.1-0.1-2.1,0.9-2,2c0,0.2,0.1,0.4,0.2,0.6c0.8,1.1,1.6,2.2,2.4,3.4C197.8,279.8,198.1,280.1,198.6,280z"/>
		<path class="st4" d="M191.8,278.8c0.1,0.2,0.1,0.4,0.2,0.6c0.6,0.9,1.3,1.7,1.9,2.6c0.3,0.4,1,0.4,1.5,0.2c0.5-0.3,0.9-0.7,1-1.2
			c0.1-0.4,0.1-0.8-0.1-1.1c-0.6-0.8-1.1-1.6-1.7-2.4c-0.4-0.5-0.9-0.6-1.5-0.4C192.4,277.3,191.9,278.1,191.8,278.8z"/>
		<path class="st4" d="M202.8,271.6c0.1,0.2,0.1,0.5,0.2,0.7c0.4,0.5,0.8,1.1,1.2,1.6c0.4,0.5,0.8,0.5,1.4,0.3
			c0.6-0.2,0.9-0.6,1.2-1.2c0.1-0.4,0.2-0.8-0.1-1.2c-0.4-0.5-0.8-1.1-1.2-1.6c-0.3-0.5-0.8-0.5-1.3-0.4
			C203.4,270,202.9,270.7,202.8,271.6z"/>
	</g>
	<g>
		<path class="st5" d="M245.4,207.9c0.4,0.1,0.7,0.2,1.1,0.3c1.7,0.7,2.8,2.3,2.7,4.2c-0.1,2-1.6,3.7-3.6,4
			c-2.4,0.4-4.5-1.3-4.9-3.7c-0.3-2.2,1.2-4.3,3.4-4.7c0.1,0,0.3-0.1,0.4-0.1C244.8,207.9,245.1,207.9,245.4,207.9z"/>
		<path class="st5" d="M244.6,220.9c0,0.2,0,0.5,0,0.7c0,0.4,0.2,0.8,0.5,1.1c0.1,0.1,0.1,0.1,0.2,0.2c0.6,0.5,0.6,1.2,0.3,1.9
			c-0.1,0.1-0.1,0.3-0.2,0.4c-0.1,0.2-0.2,0.4-0.5,0.4c-0.4,0-0.7,0.5-0.6,1c0.1,0.4,0.6,0.6,1,0.5c0.4-0.1,0.6-0.6,0.5-1
			c-0.1-0.1,0-0.2,0-0.3c0.3-0.5,0.5-0.9,0.6-1.4c0.1-0.5,0-1-0.4-1.4c-0.2-0.2-0.3-0.4-0.5-0.6c-0.3-0.4-0.4-0.8-0.3-1.2
			c0-0.1,0.1-0.1,0.1-0.1c0.8-0.2,1.2-0.7,1.6-1.4c0.4-0.7,0.6-1.5,0.8-2.3c0.1,0.1,0.2,0.1,0.2,0.1c1.2,0.7,2.3,1.6,3.2,2.7
			c1,1.3,1.6,2.8,1.9,4.4c0.3,1.5,0.3,2.9,0.1,4.4c0,0.2,0,0.4-0.1,0.7c-0.1,0.6-0.5,1-1,1.2c-0.1,0.1-0.2,0.1-0.2,0.2
			c0,0.4,0,0.8,0,1.2c0,0.1,0,0.1,0,0.2c0.3,0,0.6,0,0.9,0c0,2.8,0,5.6,0,8.3c-0.9,0-1.9,0-2.8,0c0-2.8,0-5.5,0-8.3
			c0.3,0,0.6,0,0.9,0c0-0.1,0-0.2,0-0.3c0-0.3,0-0.7,0-1c0-0.2,0-0.3-0.2-0.4c-0.7-0.3-0.9-1-0.9-1.8c0.2-1.7,0.2-3.3-0.3-4.9
			c0-0.1,0-0.1-0.1-0.2c0,0.1,0,0.1,0,0.2c0,2,0,3.9,0,5.9c0,0.3,0,0.5-0.1,0.8c0,0.1,0,0.2-0.1,0.3c-0.2,0.2-0.1,0.4-0.1,0.6
			c0,5.1,0,10.2,0,15.3c0,1-0.5,1.7-1.4,1.9c-1.2,0.3-2.5-0.6-2.5-1.8c0-1.4,0-2.8,0-4.2c0-3,0-6,0-9c0-0.1,0-0.2,0-0.3
			c-0.1,0-0.2,0-0.3,0c0,0.1,0,0.2,0,0.3c0,4.4,0,8.8,0,13.2c0,0.7-0.3,1.3-0.9,1.7c-0.6,0.4-1.3,0.4-2,0.1c-0.7-0.4-1-0.9-1-1.7
			c0-5.2,0-10.3,0-15.5c0-0.2-0.1-0.3-0.1-0.4c-0.1-0.2-0.2-0.4-0.2-0.6c0-2.1,0-4.2,0-6.3c0-0.1,0-0.2,0-0.3c0,0.1-0.1,0.1-0.1,0.2
			c-0.3,1-0.4,2.1-0.4,3.2c0,0.7,0.1,1.4,0.1,2c0.1,0.9-0.5,1.6-1.4,1.8c-0.9,0.1-1.7-0.4-1.8-1.3c-0.1-0.5-0.1-1-0.1-1.5
			c-0.1-1.6,0-3.2,0.4-4.8c0.6-2.3,1.9-4.1,3.8-5.4c0.3-0.2,0.7-0.4,1-0.7c0.1,0,0.1-0.1,0.2-0.1C242.6,218.8,243,220.2,244.6,220.9
			z"/>
		<path class="st5" d="M244.9,217.6c0.3-0.3,0.6-0.6,0.9-0.9c0.1-0.1,0.2-0.1,0.3-0.1c0.3,0.1,0.5,0.2,0.8,0.3c0,0,0.1,0.1,0.1,0.2
			c-0.1,0.8-0.3,1.6-0.8,2.3c-0.1,0.1-0.2,0.3-0.3,0.4c-0.6,0.6-1.3,0.6-1.9,0c-0.6-0.6-0.9-1.4-1.1-2.3c0-0.1,0-0.2-0.1-0.3
			c-0.1-0.2,0-0.3,0.2-0.4c0.2-0.1,0.4-0.1,0.6-0.2c0.1-0.1,0.2,0,0.3,0.1C244.4,217,244.7,217.3,244.9,217.6z"/>
	</g>
	<g>
		<g>
			<path class="st3" d="M53.1,124.4l13.3-13.6l12.3,14C78.8,124.9,52.9,124.2,53.1,124.4z"/>
			<rect x="55.9" y="124.3" class="st3" width="19.9" height="12"/>
			<rect x="72" y="116" class="st3" width="3.6" height="5.5"/>
			<rect x="69.5" y="126.7" class="st0" width="2.9" height="3.4"/>
			<rect x="69.5" y="131" class="st0" width="2.9" height="3.4"/>
			<rect x="65.8" y="126.7" class="st0" width="2.9" height="3.4"/>
			<rect x="65.8" y="131" class="st0" width="2.9" height="3.4"/>
		</g>
		<g>
			<g>
				<circle class="st3" cx="13.6" cy="125.5" r="1.6"/>
				
					<rect x="11" y="117.7" transform="matrix(0.7071 -0.7071 0.7071 0.7071 -78.6363 48.9085)" class="st3" width="17.5" height="3.3"/>
			</g>
			<g>
				<circle class="st3" cx="35.9" cy="125.5" r="1.6"/>
				
					<rect x="21.1" y="117.7" transform="matrix(-0.7071 -0.7071 0.7071 -0.7071 -33.4643 224.8919)" class="st3" width="17.5" height="3.3"/>
			</g>
			<polygon class="st3" points="24.9,118 14.8,127.8 14.8,135.8 34.9,135.8 34.9,128 			"/>
			<circle class="st6" cx="24.8" cy="128.8" r="4.7"/>
			<line class="st7" x1="21.6" y1="129" x2="28" y2="129"/>
			<g>
				<line class="st8" x1="22.2" y1="129" x2="27.4" y2="129"/>
				<line class="st8" x1="24.8" y1="126.4" x2="24.8" y2="131.6"/>
			</g>
		</g>
		<g>
			<polyline class="st3" points="40.4,135.1 36.4,131.1 40.4,127 			"/>
			<polyline class="st3" points="49.6,135.1 53.7,131.1 49.6,127 			"/>
			<rect x="39.8" y="129.5" class="st3" width="11.1" height="3.5"/>
		</g>
	</g>
	<g>
		<path class="st9" d="M53.4,201.1c-1.5-0.3-3-0.5-4.5-0.8c-1.7-0.4-1.8-0.4-1.7-2.2c0-1.4,0-2.8,0.3-4.1c0.5-2.2,2.6-3.7,4.9-3.7
			c1.5,0,3.1-0.1,4.6,0.2c2.3,0.3,4,2.3,4.1,4.6c0.1,1.4,0.1,2.8,0,4.2c0,0.3-0.3,0.7-0.5,0.7c-1.3,0.4-2.6,0.7-3.9,1
			c-0.3,0.1-0.6,0.1-0.9,0.2C54.9,201.1,54.1,201.1,53.4,201.1z"/>
		<path class="st9" d="M74.4,191.4c-1.8,0.9-3.7,1.2-5.8,1.3c0.3-3.4-1-6-4.1-7.2c0.4-1.1,0.8-2.1,1.2-3.1c0.1-0.2,0.3-0.4,0.4-0.4
			c1.5,0,3-0.1,4.4,0.2c2.1,0.4,3.3,1.9,3.7,3.9c0,0.1,0.1,0.2,0.1,0.3C74.4,188.1,74.4,189.7,74.4,191.4z"/>
		<path class="st9" d="M33.3,186.6c0.3-0.8,0.5-1.6,1-2.2c0.9-1.4,2.4-2.1,4.1-2.2c1.1-0.1,2.3,0,3.3,0c0.5,1.2,1,2.4,1.5,3.6
			c-3.1,1.2-4.4,3.7-4.1,7.2c-2.1-0.1-4-0.5-5.8-1.3C33.3,189.9,33.3,188.2,33.3,186.6z"/>
		<path class="st9" d="M54.3,169.4c1.2,0.3,2.3,0.8,3.1,1.8c1.1,1.6,1.1,3.8,0,5.3c-1.2,1.5-3.2,2.1-5,1.4c-1.9-0.7-3-2.5-2.8-4.6
			c0.1-1.8,1.6-3.4,3.5-3.8c0.1,0,0.2-0.1,0.4-0.1C53.7,169.4,54,169.4,54.3,169.4z"/>
		<path class="st9" d="M46.1,197c-2-0.5-3.9-0.9-5.8-1.3c-0.1,0-0.3-0.3-0.3-0.4c0-1.7-0.1-3.4,0.2-5.1c0.3-2.3,2.6-4,4.9-4
			c1.3,0,2.6,0,3.7,0c0.5,1.2,1,2.3,1.5,3.5c-1.3,0.5-2.5,1.4-3.3,2.7C46.2,193.7,46.1,195.2,46.1,197z"/>
		<path class="st9" d="M62.1,196.7c0.1-4.1-1.6-5.9-4.2-7.1c0.5-1.1,1-2.3,1.6-3.5c1.3,0.1,2.8,0,4.3,0.2c2.4,0.4,4,2.5,4,4.9
			c0,1.3,0,2.6,0,3.9c0,0.2-0.2,0.6-0.4,0.7C66.3,196.3,63.5,196.8,62.1,196.7z"/>
		<path class="st9" d="M54.1,181.9c2.2,0,4,1.7,4.1,4c0,2.2-1.8,4.1-4.1,4.1c-2.3,0-4.1-1.8-4.1-4.1
			C50.1,183.6,51.8,181.9,54.1,181.9z"/>
		<path class="st9" d="M47,177.7c2.1,0,4,1.8,4,3.8c0,0.3-0.2,0.5-0.3,0.8c-0.5,0.8-1,1.7-1.5,2.5c-0.2,0.3-0.4,0.6-0.7,0.7
			c-1.5,0.7-3.2,0.3-4.4-0.8c-1.2-1.1-1.5-3-0.9-4.5C43.9,178.6,45.3,177.7,47,177.7z"/>
		<path class="st9" d="M71.5,177.6c0,2.6-2.5,4.6-5,3.9c-0.4-0.1-0.7-0.2-0.8-0.8c-0.2-1.2-0.8-2.1-1.8-2.8
			c-0.4-0.3-0.5-0.7-0.4-1.1c0.4-2,2.3-3.4,4.4-3.2C70,173.8,71.5,175.5,71.5,177.6z"/>
		<path class="st9" d="M40.1,181.8c-2.1,0-3.8-1.6-4-3.6c-0.2-2.2,1.4-4.2,3.4-4.4c2.2-0.3,4.2,1.1,4.6,3.2c0.1,0.4,0,0.8-0.4,1.1
			c-0.9,0.6-1.5,1.5-1.7,2.5c-0.2,1-0.8,1.2-1.6,1.2C40.4,181.8,40.3,181.8,40.1,181.8z"/>
		<path class="st9" d="M64.8,181.8c0,2.7-2.6,4.6-5.1,3.8c-0.3-0.1-0.6-0.4-0.6-0.7c-0.3-1.2-0.9-2.2-1.8-2.9
			c-0.4-0.3-0.5-0.7-0.3-1.2c0.5-2.2,2.3-3.4,4.6-3.1C63.4,178,64.9,179.8,64.8,181.8z"/>
		<path class="st9" d="M42.6,173.5c0.9-2.7,3.6-3.7,5.9-2.4c0.4,0.3,0.7,0.5,0.4,1.1c-0.5,1.5-0.3,3,0.5,4.4c0.1,0.2,0.1,0.5,0.1,1
			c-1.6-0.8-3-0.9-4.5-0.3C44.7,175.6,44,174.3,42.6,173.5z"/>
		<path class="st9" d="M62.6,177.1c-1.3-0.4-2.5-0.5-3.7,0c-0.1,0.1-0.4,0-0.5-0.1c-0.1-0.1-0.2-0.4-0.1-0.6
			c0.8-1.4,0.9-2.9,0.5-4.4c-0.1-0.2,0.2-0.5,0.4-0.7c2.1-1.7,5.1-0.8,6.2,1.8C63.8,174,62.8,175.3,62.6,177.1z"/>
		<path class="st9" d="M51.9,181.3c-0.3-0.8-0.5-1.7-0.8-2.6c1.9,0,3.8,0,5.7,0c-0.3,0.9-0.6,1.6-0.9,2.4c-0.7-0.1-1.4-0.2-2.1-0.2
			C53.1,180.9,52.5,181.2,51.9,181.3z"/>
	</g>
	<g>
		<circle class="st10" cx="86.2" cy="242.1" r="3.4"/>
		<path class="st3" d="M91.1,265.9H79.8c0,0-0.4-19.1,5.3-19.1C93.5,246.9,91.1,265.9,91.1,265.9z"/>
		<path class="st3" d="M87.3,251.7c-0.6,0-1.1-0.1-1.7-0.2c-0.7-0.1-1.1-0.8-1-1.5c0.1-0.7,0.8-1.1,1.5-1c0.4,0.1,0.8,0.1,1.2,0.1
			c3.8,0,7-3.1,7-7c0-0.7,0.6-1.2,1.2-1.2s1.2,0.6,1.2,1.2C96.7,247.4,92.5,251.7,87.3,251.7z"/>
		<path class="st3" d="M85.5,275.9c-1,0-1.8-0.8-1.8-1.8V262c0-1,0.8-1.8,1.8-1.8s1.8,0.8,1.8,1.8v12.2
			C87.2,275.2,86.4,275.9,85.5,275.9z"/>
		<rect x="97" y="233.6" class="st3" width="14.6" height="39"/>
		<circle class="st0" cx="100" cy="254.2" r="1.1"/>
	</g>
</g>
</svg>
