<!-- Generator: Adobe Illustrator 24.1.2, SVG Export Plug-In  -->
<svg version="1.1" xmlns="http://www.w3.org/2000/svg" xmlns:xlink="http://www.w3.org/1999/xlink" x="0px" y="0px" width="21.7px"
	 height="21.5px" viewBox="0 0 21.7 21.5" style="overflow:visible;enable-background:new 0 0 21.7 21.5;" xml:space="preserve">
<style type="text/css">
	.st0{fill:#87C952;}
</style>
<defs>
</defs>
<g>
	<path class="st0" d="M21.3,9.5L21.3,9.5l-3.9-6.7c-0.1-0.2-0.3-0.3-0.5-0.2c0,0,0,0,0,0l-1.7,1L9,0.1C8.9,0,8.8,0,8.7,0
		C8.6,0,8.5,0.1,8.4,0.2L3.1,9.5H0.4C0.2,9.5,0,9.6,0,9.9v11.3c0,0.2,0.2,0.4,0.4,0.4h20.9c0.2,0,0.4-0.2,0.4-0.4V9.9
		C21.7,9.6,21.5,9.5,21.3,9.5z M19.7,18.3c-0.7,0-1.2,0.5-1.2,1.2c0,0.2-0.2,0.4-0.4,0.4H3.6c-0.2,0-0.4-0.2-0.4-0.4
		c0-0.7-0.5-1.2-1.2-1.2c-0.2,0-0.4-0.2-0.4-0.4v-4.8c0-0.2,0.2-0.4,0.4-0.4c0.7,0,1.2-0.5,1.2-1.2c0-0.2,0.2-0.4,0.4-0.4h14.5
		c0.2,0,0.4,0.2,0.4,0.4c0,0.7,0.5,1.2,1.2,1.2c0.2,0,0.4,0.2,0.4,0.4v4.8C20.1,18.1,19.9,18.3,19.7,18.3z M8.2,3.8
		c0.1-0.1,0.1-0.2,0.2-0.2c0.1,0,0.2,0,0.3,0c0.6,0.3,1.3,0.1,1.6-0.4C10.5,3.1,10.6,3,10.7,3c0.1,0,0.2,0,0.3,0l2.6,1.5L12.8,5l0,0
		l-1.9-1.1c-0.5,0.6-1.4,0.8-2.1,0.6L6.3,8.7l0,0L5.1,9.5H5L8.2,3.8z M17.4,6.2c0.1,0,0.2,0.1,0.2,0.2l1.8,3.1h-0.9l-1.4-2.4
		c-0.8,0.3-1.6,0-2.1-0.6l-5.1,3H8.3l6.6-3.8c0.1-0.1,0.2-0.1,0.3,0c0.1,0,0.2,0.1,0.2,0.2c0.2,0.3,0.4,0.5,0.7,0.6
		c0.3,0.1,0.6,0,0.9-0.1C17.2,6.2,17.3,6.1,17.4,6.2z"/>
	<path class="st0" d="M17.7,11.9H4c-0.2,0.8-0.8,1.4-1.6,1.6v4.1c0.8,0.2,1.4,0.8,1.6,1.6h13.8c0.2-0.8,0.8-1.4,1.6-1.6v-4.1
		C18.5,13.3,17.9,12.7,17.7,11.9z M10.9,18.5c-1.6,0-2.8-1.3-2.8-2.8s1.3-2.8,2.8-2.8s2.8,1.3,2.8,2.8S12.4,18.5,10.9,18.5z"/>
	<circle class="st0" cx="10.9" cy="15.7" r="2"/>
</g>
</svg>
