<svg xmlns="http://www.w3.org/2000/svg" width="20px" height="16px" viewBox="0 0 20 16.25" aria-hidden="true" style="fill:url(#CerosGradient_idd90d06f47);">
  <defs><linearGradient class="cerosgradient" data-cerosgradient="true" id="CerosGradient_idd90d06f47" gradientUnits="userSpaceOnUse" x1="50%" y1="100%" x2="50%" y2="0%"><stop offset="0%" stop-color="#FFFFFF"/><stop offset="100%" stop-color="#FFFFFF"/></linearGradient><linearGradient/>
    <style>
      .cls-1-5f96dd38dbec2{
        fill: #9da5b1;
      }
    </style>
  </defs>
  <title>twitter</title>
  <g id="Layer_25f96dd38dbec2" data-name="Layer 2">
    <g id="Layer_1-25f96dd38dbec2" data-name="Layer 1">
      <g id="Group_123515f96dd38dbec2" data-name="Group 12351">
        <path id="Path_27635f96dd38dbec2" data-name="Path 2763" class="cls-1-5f96dd38dbec2" d="M17.93,4.06A9,9,0,0,0,20,1.91a8.81,8.81,0,0,1-2.34.67A4.15,4.15,0,0,0,19.46.31a8.56,8.56,0,0,1-2.62,1A4.68,4.68,0,0,0,15.49.35,3.81,3.81,0,0,0,13.83,0a4,4,0,0,0-2,.55,4,4,0,0,0-1.48,1.5A4.09,4.09,0,0,0,9.77,4.1,6,6,0,0,0,9.85,5,11.54,11.54,0,0,1,5.14,3.79a11.36,11.36,0,0,1-3.73-3,4,4,0,0,0-.08,4A4.6,4.6,0,0,0,2.66,6.25,3.87,3.87,0,0,1,.82,5.7v.08a3.92,3.92,0,0,0,.94,2.58A4.16,4.16,0,0,0,4.1,9.81,6.61,6.61,0,0,1,3,9.93c-.24,0-.48,0-.74,0a4.05,4.05,0,0,0,1.42,2,3.85,3.85,0,0,0,2.4.8A8.1,8.1,0,0,1,1,14.45a9.62,9.62,0,0,1-1,0,11.33,11.33,0,0,0,6.29,1.84,11.25,11.25,0,0,0,6.37-1.84A11.17,11.17,0,0,0,16.6,10,11.69,11.69,0,0,0,18,4.57,2.92,2.92,0,0,0,17.93,4.06Z" style="fill:url(#CerosGradient_idd90d06f47);"/>
      </g>
    </g>
  </g>
</svg>