<svg xmlns="http://www.w3.org/2000/svg" xmlns:xlink="http://www.w3.org/1999/xlink" version="1.1" x="0px" y="0px" viewBox="423.3 223.3 113.4 113.4" style="enable-background:new 423.3 223.3 113.4 113.4;fill:url(#CerosGradient_ida6e47c346);" xml:space="preserve" width="113px" height="113px" aria-hidden="true"><defs><linearGradient class="cerosgradient" data-cerosgradient="true" id="CerosGradient_ida6e47c346" gradientUnits="userSpaceOnUse" x1="50%" y1="100%" x2="50%" y2="0%"><stop offset="0%" stop-color="#FFFFFF"/><stop offset="100%" stop-color="#FFFFFF"/></linearGradient><linearGradient/></defs><style type="text/css">
	.st0-5f96de9469eb5{fill:#231815;}
</style><path class="st0-5f96de9469eb5" d="M443.4,244.1h72c0.7,0,1.4,0.2,2.1,0.4l-38.2,38.2l-38.2-38.2  C441.9,244.4,442.6,244.1,443.4,244.1z M524.4,307.1c0,5-4,9-9,9h-72c-5,0-9-4-9-9v-54c0-0.7,0.2-1.4,0.4-2.1l44.5,44.5l44.7-44.7  c0.2,0.8,0.5,1.5,0.5,2.3L524.4,307.1L524.4,307.1z" style="fill:url(#CerosGradient_ida6e47c346);"/></svg>