<svg xmlns="http://www.w3.org/2000/svg" width="17.5" height="17.5" viewBox="0 0 17.5 17.5">
  <defs>
    <style>
      .cls-1 {
        fill: #9da5b1;
      }
    </style>
  </defs>
  <title>linkedin</title>
  <g id="Layer_2" data-name="Layer 2">
    <g id="Layer_1-2" data-name="Layer 1">
      <g id="Group_12349" data-name="Group 12349">
        <path id="Path_2762" data-name="Path 2762" class="cls-1" d="M16.25,0a1.22,1.22,0,0,1,.88.37,1.22,1.22,0,0,1,.37.88v15a1.26,1.26,0,0,1-1.25,1.25h-15a1.22,1.22,0,0,1-.88-.37A1.22,1.22,0,0,1,0,16.25v-15A1.22,1.22,0,0,1,.37.37,1.22,1.22,0,0,1,1.25,0Zm-11,15h0V6.64H2.7V15ZM4,5.51a1.5,1.5,0,0,0,1.08-.45A1.47,1.47,0,0,0,5.51,4a1.44,1.44,0,0,0-.45-1A1.49,1.49,0,0,0,4,2.5,1.41,1.41,0,0,0,2.93,3a1.51,1.51,0,0,0,0,2.11A1.39,1.39,0,0,0,4,5.51ZM15,15V10.43a5.62,5.62,0,0,0-.55-2.85,2.79,2.79,0,0,0-2.54-1.13,3,3,0,0,0-1.6.43,2.17,2.17,0,0,0-.85.9H9.41V6.64H6.91V15H9.49V10.86a3.13,3.13,0,0,1,.28-1.48,1.36,1.36,0,0,1,1.28-.67,1.13,1.13,0,0,1,1.18.74,4.4,4.4,0,0,1,.2,1.49V15Z"/>
      </g>
    </g>
  </g>
</svg>
