<!-- Generator: Adobe Illustrator 24.1.2, SVG Export Plug-In  -->
<svg version="1.1" xmlns="http://www.w3.org/2000/svg" xmlns:xlink="http://www.w3.org/1999/xlink" x="0px" y="0px" width="23.8px"
	 height="21.7px" viewBox="0 0 23.8 21.7" style="overflow:visible;enable-background:new 0 0 23.8 21.7;" xml:space="preserve">
<style type="text/css">
	.st0{fill:#3EBDAE;}
</style>
<defs>
</defs>
<path class="st0" d="M23.6,8.8L12.2,0.1c-0.2-0.1-0.5-0.1-0.7,0L0.2,8.8C0,9-0.1,9.3,0.1,9.5c0.1,0.1,0.3,0.2,0.4,0.2h2.7v11.4
	c0,0.3,0.2,0.5,0.5,0.5c0,0,0,0,0,0H20c0.3,0,0.5-0.2,0.5-0.5c0,0,0,0,0,0V9.8l2.7,0c0.2,0,0.4-0.1,0.5-0.2
	C23.9,9.3,23.8,8.9,23.6,8.8L23.6,8.8z M15.2,14.1H13v2.2h-2.2v-2.2H8.7v-2.2h2.2V9.8H13v2.2h2.2V14.1z"/>
</svg>
