<!-- Generator: Adobe Illustrator 24.1.2, SVG Export Plug-In  -->
<svg version="1.1" xmlns="http://www.w3.org/2000/svg" xmlns:xlink="http://www.w3.org/1999/xlink" x="0px" y="0px" width="24.4px"
	 height="18.5px" viewBox="0 0 24.4 18.5" style="overflow:visible;enable-background:new 0 0 24.4 18.5;" xml:space="preserve">
<style type="text/css">
	.st0{fill:#2AB6A4;}
</style>
<defs>
</defs>
<g>
	<circle class="st0" cx="6.7" cy="2.9" r="2.9"/>
	<path class="st0" d="M24.1,6c0.4-0.4,0.4-1,0-1.4c-0.4-0.4-1-0.4-1.4,0l-2.5,2.5h-4.7l-2.5-2.5c-0.4-0.4-1-0.4-1.4,0L8.9,7.1H4.2
		L1.7,4.6c-0.4-0.4-1-0.4-1.4,0s-0.4,1,0,1.4L4,9.6v3.6v2.6v1.7c0,0.5,0.5,1,1,1s1-0.5,1-1v-1.7v-1.2c0-0.4,0.3-0.6,0.6-0.6
		c0.4,0,0.6,0.3,0.6,0.6v1.2v1.7c0,0.5,0.5,1,1,1c0.5,0,1-0.5,1-1v-1.7v-2.7V9.6l3-2.9l3,2.9l-2,6.1h2v1.8c0,0.5,0.5,1,1,1
		c0.5,0,1-0.5,1-1v-1.8h1.3v1.8c0,0.5,0.5,1,1,1s1-0.5,1-1v-1.8h2l-2-6.1L24.1,6z"/>
	<circle class="st0" cx="17.8" cy="2.9" r="2.9"/>
</g>
</svg>
