<svg xmlns="http://www.w3.org/2000/svg" width="16.44" height="16.44" viewBox="0 0 16.44 16.44">
  <defs>
    <style>
      .cls-1 {
        fill: #9da5b1;
      }
    </style>
  </defs>
  <title>facebook</title>
  <g id="Layer_2" data-name="Layer 2">
    <g id="Layer_1-2" data-name="Layer 1">
      <g id="Group_11454" data-name="Group 11454">
        <g id="Group_1774" data-name="Group 1774">
          <path id="Path_237" data-name="Path 237" class="cls-1" d="M15.54,0H.91A.91.91,0,0,0,0,.91H0V15.54a.9.9,0,0,0,.91.9H8.78V10.08H6.65V7.6H8.78V5.76A3,3,0,0,1,12,2.48a17.33,17.33,0,0,1,1.91.1V4.8H12.58c-1,0-1.23.49-1.23,1.21V7.6h2.47l-.32,2.49H11.35v6.35h4.19a.9.9,0,0,0,.9-.9V.91A.9.9,0,0,0,15.54,0Z"/>
        </g>
      </g>
    </g>
  </g>
</svg>
