<svg xmlns="http://www.w3.org/2000/svg" xmlns:xlink="http://www.w3.org/1999/xlink" version="1.1" x="0px" y="0px" viewBox="0 0 100 100" style="enable-background:new 0 0 100 100;" xml:space="preserve" width="100px" height="100px"><style type="text/css">
	.st0{fill:none;stroke:#000000;stroke-width:2;stroke-linecap:round;stroke-linejoin:round;stroke-miterlimit:10;}
	.st1{stroke:#000000;stroke-width:0.5;stroke-linecap:round;stroke-linejoin:round;stroke-miterlimit:10;}
	.st2{stroke:#000000;stroke-width:0.25;stroke-linecap:round;stroke-linejoin:round;stroke-miterlimit:10;}
	.st3{fill:none;stroke:#000000;stroke-width:2;stroke-miterlimit:10;}
</style><path d="M38.3,29.4c0,0,0.1,0.1,0.1,0.1l0,1.1l0.9,0.6c0,0,0.1,0.1,0.1,0.1c0,0,0,0,0,0c0,0,0,0.1-0.1,0.1l-1,0.3l-0.3,1  c0,0-0.1,0.1-0.1,0.1c0,0-0.1,0-0.1,0l-0.6-0.9L36,32c0,0-0.1,0-0.1-0.1c0,0,0-0.1,0-0.1l0.6-0.9l-0.4-1c0,0,0-0.1,0-0.1  c0,0,0.1,0,0.1,0l1,0.3l0.8-0.7C38.2,29.4,38.3,29.3,38.3,29.4z"/><path d="M41.9,67.6l0.9,0.6c0,0,0.1,0.1,0.1,0.1c0,0,0,0,0,0c0,0,0,0.1-0.1,0.1l-1,0.3l-0.3,1c0,0-0.1,0.1-0.1,0.1c0,0-0.1,0-0.1,0  L40.6,69l-1.1,0c0,0-0.1,0-0.1-0.1c0,0,0-0.1,0-0.1l0.6-0.9l-0.4-1c0,0,0-0.1,0-0.1c0,0,0.1,0,0.1,0l1,0.3l0.8-0.7c0,0,0.1,0,0.1,0  c0,0,0.1,0.1,0.1,0.1L41.9,67.6z"/><path d="M79.1,72.6l-1.1,0c0,0-0.1,0-0.1-0.1s0-0.1,0-0.1l0.6-0.9l-0.4-1c0,0,0-0.1,0-0.1s0.1,0,0.1,0l1,0.3l0.8-0.7  c0,0,0.1,0,0.1,0c0,0,0.1,0.1,0.1,0.1l0,1.1l0.9,0.6c0,0,0.1,0.1,0.1,0.1c0,0,0,0,0,0c0,0,0,0.1-0.1,0.1l-1,0.3l-0.3,1  c0,0-0.1,0.1-0.1,0.1c0,0-0.1,0-0.1,0L79.1,72.6z"/><path d="M75.1,23.4l-1.1,0c0,0-0.1,0-0.1-0.1c0,0,0-0.1,0-0.1l0.6-0.9l-0.4-1c0,0,0-0.1,0-0.1s0.1,0,0.1,0l1,0.3l0.8-0.7  c0,0,0.1,0,0.1,0s0.1,0.1,0.1,0.1l0,1.1l0.9,0.6c0,0,0.1,0.1,0.1,0.1c0,0,0,0,0,0c0,0,0,0.1-0.1,0.1l-1,0.3l-0.3,1  c0,0-0.1,0.1-0.1,0.1c0,0-0.1,0-0.1,0L75.1,23.4z"/><path d="M21.4,47.8c-1,2.1-2.2,4.6-4.8,4.6c-0.6,0-1-0.4-1-1s0.4-1,1-1c1.2,0,2-1.4,3-3.4c1-2.1,2.2-4.6,4.8-4.6  c2.6,0,3.7,2.4,4.8,4.6c1,2.1,1.8,3.4,3,3.4s2-1.4,3-3.4c1-2.1,2.2-4.6,4.8-4.6c2.6,0,3.7,2.4,4.8,4.6c1,2.1,1.8,3.4,3,3.4  c1.2,0,2-1.4,3-3.4c1-2.1,2.2-4.6,4.8-4.6c2.6,0,3.7,2.4,4.8,4.6c1,2.1,1.8,3.4,3,3.4c1.2,0,2-1.4,3-3.4c1-2.1,2.2-4.6,4.8-4.6  s3.7,2.4,4.8,4.6c1,2.1,1.8,3.4,3,3.4c0.6,0,1,0.4,1,1s-0.4,1-1,1c-2.6,0-3.7-2.4-4.8-4.6c-1-2.1-1.8-3.4-3-3.4s-2,1.4-3,3.4  c-1,2.1-2.2,4.6-4.8,4.6c-2.6,0-3.7-2.4-4.8-4.6c-1-2.1-1.8-3.4-3-3.4c-1.2,0-2,1.4-3,3.4c-1,2.1-2.2,4.6-4.8,4.6s-3.7-2.4-4.8-4.6  c-1-2.1-1.8-3.4-3-3.4c-1.2,0-2,1.4-3,3.4c-1,2.1-2.2,4.6-4.8,4.6s-3.7-2.4-4.8-4.6c-1-2.1-1.7-3.4-3-3.4S22.4,45.7,21.4,47.8z"/><path d="M38.1,88.3c-0.3-0.5-0.1-1.1,0.4-1.4c0.8-0.4,0.5-2.4,0.2-4C38.4,80.6,38,78,40,76.8c2-1.1,4,0.5,5.9,2  c1.3,1.1,2.8,2.3,3.6,1.8c0.8-0.4,0.5-2.4,0.2-4c-0.3-2.3-0.7-4.9,1.2-6.1c2-1.1,4,0.5,5.9,2c1.3,1.1,2.8,2.3,3.6,1.8  c0.8-0.4,0.5-2.3,0.2-4c-0.3-2.3-0.7-4.9,1.2-6.1c2-1.1,4,0.5,5.9,2c1.3,1.1,2.8,2.3,3.6,1.8c0.8-0.5,0.5-2.4,0.2-4  c-0.3-2.3-0.7-4.9,1.2-6.1c2-1.1,4,0.5,5.9,2c1.3,1.1,2.8,2.3,3.6,1.8c0.5-0.3,1.1-0.1,1.4,0.4c0.1,0.2,0.1,0.3,0.1,0.5  c0,0.3-0.2,0.7-0.5,0.9c-2,1.1-4-0.5-5.9-2c-1.3-1.1-2.8-2.3-3.6-1.8s-0.5,2.4-0.2,4c0.3,2.3,0.7,4.9-1.2,6.1c-2,1.1-4-0.5-5.9-2  c-1.3-1.1-2.8-2.3-3.6-1.8c-0.8,0.4-0.5,2.4-0.2,4c0.3,2.3,0.7,4.9-1.2,6.1c-2,1.1-4-0.5-5.9-2c-1.3-1.1-2.8-2.3-3.6-1.8  c-0.8,0.4-0.5,2.4-0.2,4c0.3,2.3,0.7,4.9-1.2,6.1c-2,1.1-4-0.5-5.9-2c-1.3-1.1-2.8-2.3-3.6-1.8c-0.8,0.4-0.5,2.4-0.2,4  c0.3,2.3,0.7,4.9-1.2,6.1C39,88.9,38.4,88.8,38.1,88.3z"/><path d="M79.4,36c0.2-1.7,0.5-3.6-0.3-4c-0.8-0.5-2.3,0.7-3.6,1.8c-1.8,1.5-3.9,3.1-5.9,2c-2-1.1-1.6-3.7-1.2-6.1  c0.2-1.7,0.5-3.6-0.2-4c-0.8-0.4-2.3,0.7-3.6,1.8c-1.8,1.5-3.9,3.1-5.9,2c-2-1.1-1.6-3.7-1.2-6.1c0.2-1.7,0.5-3.6-0.2-4  c-0.8-0.4-2.3,0.7-3.6,1.8c-1.8,1.5-3.9,3.1-5.9,2c-2-1.1-1.6-3.7-1.2-6.1c0.2-1.7,0.5-3.6-0.2-4s-2.3,0.7-3.6,1.8  c-1.8,1.5-3.9,3.1-5.9,2c-0.5-0.3-0.6-0.9-0.4-1.4c0.3-0.5,0.9-0.6,1.4-0.4c0.8,0.4,2.3-0.7,3.6-1.8c1.8-1.5,3.9-3.1,5.9-2  c2,1.1,1.6,3.7,1.2,6.1c-0.2,1.7-0.5,3.6,0.2,4c0.8,0.4,2.3-0.7,3.6-1.8c1.8-1.5,3.9-3.1,5.9-2c2,1.1,1.6,3.7,1.2,6.1  c-0.2,1.7-0.5,3.6,0.2,4c0.8,0.4,2.3-0.7,3.6-1.8c1.8-1.5,3.9-3.1,5.9-2c2,1.1,1.6,3.7,1.2,6.1c-0.2,1.7-0.5,3.6,0.2,4  c0.8,0.5,2.3-0.7,3.6-1.8c1.8-1.5,3.9-3.1,5.9-2c2,1.1,1.6,3.8,1.2,6.1c-0.2,1.7-0.5,3.6,0.2,4c0.3,0.2,0.5,0.5,0.5,0.9  c0,0.2,0,0.3-0.1,0.5c-0.3,0.5-0.9,0.6-1.4,0.4C78.7,40.9,79.1,38.3,79.4,36z"/><path d="M49.8,36.5c-0.1-0.1-0.1-0.1-0.1-0.2l0.3-1.8l-1.3-1.2c-0.1-0.1-0.1-0.2-0.1-0.3c0-0.1,0.1-0.2,0.2-0.2l1.8-0.3l0.8-1.6  c0-0.1,0.1-0.1,0.2-0.1s0.2,0.1,0.2,0.1l0.8,1.6l1.8,0.2c0.1,0,0.2,0.1,0.2,0.2c0,0,0,0.1,0,0.1c0,0.1,0,0.1-0.1,0.2l-1.3,1.3  l0.3,1.7c0,0.1,0,0.2-0.1,0.2c-0.1,0.1-0.2,0.1-0.3,0l-1.6-0.8L50,36.5C50,36.6,49.9,36.6,49.8,36.5z"/><path d="M57.2,59.5c0,0,0.1,0.1,0.1,0.2c0,0,0,0.1,0,0.1c0,0.1-0.1,0.2-0.2,0.2l-1.8,0.2l-0.8,1.6c0,0.1-0.1,0.1-0.2,0.1  S54,61.7,54,61.7L53.3,60l-1.7-0.3c-0.1,0-0.2-0.1-0.2-0.2c0-0.1,0-0.2,0.1-0.3l1.3-1.2l-0.2-1.8c0-0.1,0-0.2,0.1-0.2  c0.1-0.1,0.2-0.1,0.3,0l1.5,0.9l1.6-0.8c0.1,0,0.2,0,0.3,0s0.1,0.2,0.1,0.2L56,58.2L57.2,59.5z"/><path d="M23,74c0.1,0.1,0.1,0.2,0.1,0.2L22.7,76l1.2,1.3c0,0,0.1,0.1,0.1,0.2c0,0,0,0.1,0,0.1c0,0.1-0.1,0.2-0.2,0.2L22,77.9  l-0.8,1.6c0,0.1-0.1,0.1-0.2,0.1s-0.2-0.1-0.2-0.1L20,77.8l-1.7-0.3c-0.1,0-0.2-0.1-0.2-0.2c0-0.1,0-0.2,0.1-0.3l1.3-1.2l-0.2-1.8  c0-0.1,0-0.2,0.1-0.2c0.1-0.1,0.2-0.1,0.3,0l1.5,0.9l1.6-0.8C22.8,73.9,22.9,73.9,23,74z"/><path d="M24.1,17.7c0.1,0,0.2,0.1,0.2,0.2l0.3,1.8l1.6,0.7c0.1,0,0.1,0.1,0.1,0.2c0,0,0,0,0,0c0,0.1-0.1,0.2-0.1,0.2l-1.6,0.8  l-0.2,1.8c0,0.1-0.1,0.2-0.2,0.2c-0.1,0-0.2,0-0.3-0.1l-1.3-1.2L21,22.7c-0.1,0-0.2,0-0.2-0.1c-0.1-0.1-0.1-0.2,0-0.3l0.8-1.6  l-0.9-1.6c0-0.1,0-0.2,0-0.3s0.1-0.1,0.2-0.1l1.8,0.3l1.2-1.3C23.9,17.7,24,17.6,24.1,17.7z"/><path d="M26,66.5c-0.1-0.1-0.1-0.1-0.1-0.2l0.3-1.8l-1.3-1.2c-0.1-0.1-0.1-0.2-0.1-0.3c0-0.1,0.1-0.2,0.2-0.2l1.8-0.3l0.8-1.6  c0-0.1,0.1-0.1,0.2-0.1c0.1,0,0.2,0.1,0.2,0.1l0.8,1.6l1.8,0.2c0.1,0,0.2,0.1,0.2,0.2c0,0,0,0.1,0,0.1c0,0.1,0,0.1-0.1,0.2l-1.3,1.3  l0.3,1.7c0,0.1,0,0.2-0.1,0.2c-0.1,0.1-0.2,0.1-0.3,0l-1.6-0.8l-1.6,0.9C26.2,66.5,26.1,66.5,26,66.5z"/></svg>