<svg xmlns="http://www.w3.org/2000/svg" xmlns:xlink="http://www.w3.org/1999/xlink" version="1.1" x="0px" y="0px" viewBox="-449 451 100 100" style="enable-background:new -449 451 100 100;" xml:space="preserve" width="100px" height="100px"><g><path d="M-400,471c4.3-0.1,8.7,0.7,12.7,2.4c7,2.9,12.8,8.7,15.8,15.7c3.2,7.3,3.3,16,0.2,23.4c-2.7,6.5-7.7,11.9-13.8,15.1   c-3.4,1.7-7.1,2.9-10.9,3.3c-4.5,0.5-9.2-0.1-13.5-1.7c-6.9-2.5-12.9-7.8-16.2-14.4c-2.2-4.3-3.4-9.1-3.3-13.9   c0-4.3,0.9-8.5,2.7-12.3c2.2-4.8,5.7-8.9,9.9-12C-411.6,473.1-405.8,471.1-400,471 M-402.2,475.5c-7.4,7.4-14.8,14.8-22.2,22.2   c-0.1,0.1-0.1,0.3-0.1,0.4c-0.2,2-0.2,4,0.1,6c9.5-9.5,19.1-19.1,28.6-28.6C-398,475.3-400.1,475.3-402.2,475.5 M-394.1,475.8   c-10,10.1-20.1,20.1-30.1,30.1c0.3,1.7,0.8,3.3,1.5,4.9c11.1-11.1,22.3-22.3,33.4-33.4C-390.8,476.7-392.4,476.1-394.1,475.8    M-414.3,480.5c-2.1,1.6-4,3.5-5.5,5.7c-1.9,2.7-3.3,5.9-4.1,9.1c6.5-6.5,12.9-12.9,19.3-19.3   C-408.2,476.8-411.5,478.3-414.3,480.5 M-422,512.2c0.7,1.4,1.5,2.7,2.4,3.9c11.9-11.9,23.9-23.9,35.8-35.8   c-1.2-0.9-2.5-1.7-3.9-2.4C-399.2,489.4-410.6,500.8-422,512.2 M-418.7,517.3c0.9,1.1,2,2.2,3.1,3.2c12-12.1,24.1-24.1,36-36   c-0.9-1.1-2-2.2-3.2-3.1C-394.7,493.3-406.7,505.3-418.7,517.3 M-414.4,521.4c1.2,0.9,2.5,1.7,3.9,2.4   c11.5-11.5,22.9-22.9,34.4-34.4c-0.7-1.4-1.5-2.7-2.4-3.9C-390.5,497.5-402.5,509.5-414.4,521.4 M-409.1,524.5   c1.5,0.7,3.1,1.2,4.8,1.5c10.1-10.1,20.2-20.2,30.3-30.3c-0.3-1.7-0.9-3.3-1.5-4.8C-386.7,502.1-397.9,513.3-409.1,524.5    M-402.5,526.3c2.1,0.3,4.1,0.3,6.2,0.1c1.9-1.8,3.7-3.7,5.5-5.5c5.7-5.7,11.4-11.4,17.1-17.1c0.2-2.1,0.2-4.2-0.1-6.3   C-383.3,507.1-392.9,516.7-402.5,526.3 M-393.8,526c6.1-1.3,11.7-4.8,15.3-9.9c2.2-2.9,3.7-6.4,4.5-10   C-380.6,512.8-387.2,519.5-393.8,526z"/></g></svg>