<!-- Generator: Adobe Illustrator 24.1.2, SVG Export Plug-In  -->
<svg version="1.1" xmlns="http://www.w3.org/2000/svg" xmlns:xlink="http://www.w3.org/1999/xlink" x="0px" y="0px" width="44.4px"
	 height="44.2px" viewBox="0 0 44.4 44.2" style="overflow:visible;enable-background:new 0 0 44.4 44.2;" xml:space="preserve">
<style type="text/css">
	.st0{fill:#9CB2DC;}
	.st1{fill:#FFFFFF;}
</style>
<defs>
</defs>
<g>
	<g>
		<path class="st0" d="M0,23.5L23,0l21.3,24.3C44.4,24.3-0.4,23.2,0,23.5z"/>
		<polygon class="st0" points="39.3,23.4 4.9,22.4 4.9,44.2 39.3,44.2 		"/>
	</g>
	<path class="st1" d="M28.5,16.7c-0.2,0.2-0.3,0.3-0.4,0.4c-1,1-1.9,2-2.9,2.9c-0.3,0.3-0.4,0.7-0.3,1.1c0.2,1.5,1.9,3.1,3.3,3.4
		c0.5,0.1,0.8,0,1.2-0.4c1-1.1,2.1-2.2,3.3-3.3c0.1,0.4,0.2,0.7,0.3,1c0,0.5,0,1,0,1.5c-0.3,0.8-0.5,1.7-0.9,2.4c-1.2,2-3,3-5.4,2.9
		c-1.2,0-2.2,0.3-3,1.2c-2.8,2.9-5.7,5.7-8.5,8.5c-0.6,0.6-1.3,1.2-2.1,1.4c-0.4,0-0.7,0-1.1,0c-0.7-0.3-1.4-0.6-1.8-1.2
		c-0.2-0.3-0.4-0.7-0.5-1.1c0-0.4,0-0.7,0-1.1c0.2-0.9,0.8-1.5,1.4-2.1c2.9-2.9,5.8-5.8,8.6-8.6c0.8-0.8,1.2-1.7,1.1-2.8
		c-0.1-3.2,2-5.8,5.2-6.3c0.1,0,0.2-0.1,0.2-0.1c0.5,0,1,0,1.5,0C27.8,16.5,28.1,16.6,28.5,16.7z M12.4,37.8c0.5,0,1-0.4,1-1
		c0-0.5-0.5-1-1-1c-0.5,0-0.9,0.5-0.9,1C11.4,37.4,11.9,37.8,12.4,37.8z"/>
</g>
</svg>
